<svg height="511pt" viewBox="0 0 511 511.99792" width="511pt" xmlns="http://www.w3.org/2000/svg"><path d="m409.289062 101.8125c-11.144531 0-22.164062 3.105469-31.949218 9.203125-59.785156 37.277344-110.34375 89.335937-146.210938 150.550781-8.289062 14.140625-10.570312 30.664063-6.429687 46.523438.925781 3.546875 2.164062 6.957031 3.660156 10.21875 8.042969 3.71875 16.792969 5.664062 25.621094 5.664062 21.746093 0 42.070312-11.632812 53.042969-30.359375 25.8125-44.046875 62.214843-81.535156 105.28125-108.410156 23.101562-14.417969 33.78125-42.902344 25.96875-69.269531-.859376-2.894532-1.933594-5.683594-3.171876-8.371094-1.328124-.613281-2.675781-1.199219-4.058593-1.726562-7.097657-2.691407-14.453125-4.023438-21.753907-4.023438zm0 0" fill="#ffc66c"/><path d="m476.625 104.570312c-4.582031-15.472656-12.433594-28.878906-22.492188-39.828124-29.257812-13.113282-64.5-12.449219-94.621093 6.332031-1.019531.636719-2.03125 1.289062-3.046875 1.929687 7.292968-3 15.027344-4.523437 22.824218-4.523437 7.300782 0 14.65625 1.332031 21.753907 4.023437 18.152343 6.890625 31.722656 21.503906 37.230469 40.097656 7.8125 26.367188-2.867188 54.851563-25.96875 69.269532-43.066407 26.875-79.46875 64.363281-105.277344 108.410156-10.972656 18.726562-31.296875 30.359375-53.042969 30.359375-10.816406 0-21.511719-2.917969-30.929687-8.4375-14.144532-8.285156-24.214844-21.582031-28.355469-37.445313-2.335938-8.945312-2.625-18.101562-.949219-26.925781-15.25 36.726563-7.332031 78.664063 18.9375 107.289063 13.3125 5.972656 27.375 8.851562 41.292969 8.851562 34.804687 0 68.691406-17.9375 87.554687-50.136718 22.847656-38.988282 54.414063-71.277344 91.945313-94.699219 38.527343-24.042969 56.046875-71.023438 43.144531-114.566407zm0 0" fill="#c9f3ff"/><path d="m369.234375 173.054688c9.582031-9.683594 9.816406-24.984376.527344-34.179688-9.289063-9.195312-24.589844-8.796875-34.171875.886719-9.582032 9.683593-9.820313 24.984375-.527344 34.179687 9.289062 9.191406 24.589844 8.796875 34.171875-.886718zm0 0" fill="#ff5d5d"/><path d="m404.589844 66.488281c-8.171875-3.101562-16.6875-4.671875-25.300782-4.671875-13.117187 0-25.996093 3.703125-37.238281 10.71875-16.992187 10.59375-33.476562 22.511719-48.992187 35.425782-4.246094 3.53125-4.820313 9.835937-1.289063 14.082031 3.535157 4.242187 9.839844 4.820312 14.082031 1.289062 14.820313-12.332031 30.558594-23.714843 46.777344-33.828125 8.070313-5.03125 17.289063-7.6875 26.660156-7.6875 6.179688 0 12.308594 1.132813 18.207032 3.371094 15.207031 5.773438 26.578125 18.015625 31.191406 33.589844 6.539062 22.070312-2.375 45.898437-21.675781 57.945312-44.433594 27.726563-81.992188 66.402344-108.613281 111.835938-9.1875 15.679687-26.203126 25.417968-44.417969 25.417968-9.039063 0-17.984375-2.445312-25.871094-7.066406-11.839844-6.9375-20.265625-18.066406-23.734375-31.34375-3.464844-13.273437-1.554688-27.105468 5.382812-38.945312 12.058594-20.578125 25.972657-40.328125 41.359376-58.699219 3.542968-4.234375 2.988281-10.542969-1.246094-14.085937-4.234375-3.546876-10.542969-2.988282-14.085938 1.242187-16.101562 19.226563-30.664062 39.894531-43.285156 61.433594-9.636719 16.449219-12.289062 35.664062-7.476562 54.109375 4.816406 18.445312 16.527343 33.910156 32.972656 43.546875 10.953125 6.414062 23.394531 9.808593 35.984375 9.808593 25.28125 0 48.914062-13.527343 61.671875-35.304687 24.996094-42.65625 60.246094-78.960937 101.945312-104.984375 26.902344-16.789062 39.347656-49.929688 30.265625-80.59375-6.40625-21.613281-22.175781-38.597656-43.273437-46.605469zm0 0"/><path d="m268.851562 153.667969c2.566407 0 5.132813-.984375 7.089844-2.949219l.261719-.261719c3.90625-3.90625 3.90625-10.238281 0-14.144531-3.90625-3.902344-10.238281-3.902344-14.144531 0l-.296875.300781c-3.894531 3.917969-3.878907 10.25.035156 14.144531 1.953125 1.941407 4.503906 2.910157 7.054687 2.910157zm0 0"/><path d="m352.320312 190.5625c9.046876-.234375 17.585938-3.957031 24.042969-10.484375 13.445313-13.589844 13.648438-35.265625.453125-48.324219-6.449218-6.378906-15.082031-9.761718-24.273437-9.519531-9.046875.234375-17.582031 3.957031-24.042969 10.484375-6.457031 6.527344-10.089844 15.105469-10.230469 24.152344-.140625 9.207031 3.332031 17.789062 9.78125 24.167968 6.234375 6.167969 14.5 9.535157 23.359375 9.535157.300782 0 .605469-.003907.910156-.011719zm-14.050781-33.382812c.058594-3.863282 1.640625-7.554688 4.449219-10.394532 2.8125-2.839844 6.484375-4.460937 10.347656-4.5625.125-.003906.25-.003906.375-.003906 3.5625 0 6.855469 1.324219 9.308594 3.75 5.355469 5.300781 5.085938 14.292969-.601562 20.039062-2.808594 2.839844-6.484376 4.460938-10.34375 4.5625-3.722657.089844-7.148438-1.234374-9.6875-3.75-2.539063-2.511718-3.90625-5.933593-3.847657-9.640624zm0 0"/><path d="m298.492188 230.101562c5.523437 0 10-4.476562 10-10v-12.894531c0-5.519531-4.476563-10-10-10-5.519532 0-9.996094 4.480469-9.996094 10v12.894531c0 5.523438 4.476562 10 9.996094 10zm0 0"/><path d="m240.496094 228.664062c0 5.523438 4.476562 10 10 10h6.5c5.523437 0 10-4.476562 10-10 0-5.519531-4.476563-10-10-10h-6.5c-5.523438 0-10 4.476563-10 10zm0 0"/><path d="m239.925781 263.425781c-3.90625 3.902344-3.90625 10.234375 0 14.140625l6.75 6.75c1.953125 1.953125 4.511719 2.929688 7.070313 2.929688s5.117187-.976563 7.070312-2.929688c3.90625-3.902344 3.90625-10.234375 0-14.140625l-6.75-6.75c-3.90625-3.90625-10.238281-3.90625-14.140625 0zm0 0"/><path d="m502.488281 122.222656h-12.269531c-.6875-6.855468-1.996094-13.714844-4.003906-20.492187-2.304688-7.78125-5.398438-15.171875-9.183594-22.101563l14.539062-6.5c5.042969-2.253906 7.300782-8.167968 5.046876-13.210937-2.25-5.039063-8.164063-7.300781-13.207032-5.046875l-17.699218 7.914062c-10.699219-13.121094-24.371094-23.703125-40.230469-30.898437l8.90625-17.3125c2.523437-4.910157.589843-10.9375-4.320313-13.464844-4.914062-2.527344-10.941406-.59375-13.46875 4.320313l-10.164062 19.761718c-20.367188-5.171875-41.4375-4.433594-61.117188 1.992188l-8.128906-16.035156c-2.5-4.925782-8.515625-6.898438-13.441406-4.398438-4.925782 2.496094-6.894532 8.515625-4.398438 13.441406l7.558594 14.90625c-2.03125 1.097656-4.039062 2.257813-6.019531 3.492188-10.976563 6.84375-21.664063 14.144531-32.054688 21.851562l-7.390625-12.523437c-2.808594-4.753907-8.9375-6.335938-13.695312-3.527344-4.753906 2.808594-6.335938 8.9375-3.527344 13.695313l8.671875 14.691406c-12.023437 9.71875-23.578125 20.019531-34.632813 30.839844l-9.023437-9.019532c-3.902344-3.902344-10.234375-3.902344-14.140625 0-3.90625 3.90625-3.90625 10.238282 0 14.144532l9.144531 9.144531c-11.671875 12.390625-22.707031 25.390625-33.050781 38.945312l-15.066406-13.324219c-4.136719-3.65625-10.457032-3.269531-14.113282.867188-3.660156 4.140625-3.273437 10.457031.867188 14.117188l16.464844 14.558593c-7.550782 10.777344-14.683594 21.863281-21.347656 33.238281-.605469 1.03125-1.183594 2.070313-1.753907 3.117188l-20.148437-5.40625c-5.332032-1.433594-10.816406 1.730469-12.25 7.0625-1.429688 5.335938 1.734375 10.820312 7.066406 12.25l17.296875 4.640625c-6.632813 20.136719-7.363281 41.769531-1.878906 62.769531.261719 1.011719.542969 2.015625.835937 3.015625-15.511718 5.480469-49.578125 21.152344-69.617187 57.832031-7.753907 14.195313-17.804688 25.898438-29.871094 34.78125-4.449219 3.273438-5.398437 9.53125-2.125 13.980469 1.960937 2.664063 4.988281 4.070313 8.058594 4.070313 2.058593 0 4.136719-.632813 5.921875-1.945313 14.433594-10.628906 26.402344-24.523437 35.566406-41.300781 17.011719-31.140625 47.105469-44.445312 59.351562-48.746094 3.019532 6.070313 6.574219 11.828125 10.625 17.207032-18.726562 12.28125-57.390624 42.949218-81.269531 98.949218-27.300781 64.019532-71.066406 63.480469-72.835937 63.433594-5.515625-.230469-10.199219 4.007812-10.453125 9.523438-.257813 5.515624 4.003906 10.195312 9.523437 10.453124.148438.007813.507813.019532 1.0625.019532 8.328125 0 60.148438-3.003906 91.097656-75.582032 22.976563-53.882812 61.6875-82.363281 76.558594-91.753906 5.765625 5.269532 12.125 9.972656 19.019532 14.015625 2.898437 1.695313 5.871093 3.25 8.894531 4.671875-4.417969 12.503906-17.65625 41.945313-48.597657 58.847656-53.292968 29.113282-60.191406 76.46875-60.457031 78.46875-.734375 5.472657 3.113281 10.503907 8.585938 11.234376.449219.0625.894531.089843 1.335937.089843 4.933594 0 9.230469-3.648437 9.898438-8.675781.054687-.390625 5.726562-39.257812 50.226562-63.566406 36.609375-20 52.289063-53.976563 57.800782-69.527344 7.035156 1.875 14.25 3.0625 21.535156 3.523438v10.25c0 5.519531 4.476562 10 9.996094 10 5.523437 0 10-4.480469 10-10v-10.804688c23.742187-2.816406 45.914062-13.234375 63.191406-29.363281l10.902344 10.90625c1.953124 1.953125 4.511718 2.929687 7.070312 2.929687s5.121094-.976562 7.074219-2.929687c3.902343-3.90625 3.902343-10.238281 0-14.140625l-11.695313-11.699219c2.371094-3.195313 4.59375-6.523437 6.628906-10 5.695313-9.71875 12.019532-19.050781 18.878907-27.949219l14.730469 14.652344c1.953124 1.941406 4.503906 2.910156 7.054687 2.910156 2.566406 0 5.132813-.980468 7.085937-2.945312 3.898438-3.914063 3.878907-10.246094-.035156-14.144532l-15.988281-15.902343c9.113281-10.152344 18.984375-19.601563 29.515625-28.230469l19.757812 16.511719c1.871094 1.566406 4.148438 2.328125 6.40625 2.328125 2.863282 0 5.703126-1.222656 7.679688-3.589844 3.542969-4.234375 2.976562-10.542969-1.261719-14.082031l-16.203125-13.542969c3.605469-2.515625 7.261719-4.957031 10.992188-7.285156 10.453125-6.523438 19.507812-14.621094 27.003906-23.835938l22.054688 9.121094c1.25.515625 2.542968.761719 3.816406.761719 3.925781 0 7.652344-2.328125 9.246094-6.183594 2.109374-5.101563-.316407-10.949219-5.417969-13.0625l-18.351563-7.585937c7.472656-13.714844 12.050782-28.925782 13.308594-44.617188h12.054688c5.523437 0 10-4.476562 10-9.996094-.003907-5.523437-4.480469-10-10.003907-10zm-74.300781 88.429688c-7.601562 4.746094-14.964844 9.867187-22.082031 15.316406-.460938.296875-.894531.644531-1.304688 1.023438-15.933593 12.34375-30.5625 26.390624-43.59375 41.835937-.035156.035156-.074219.066406-.113281.101563-.460938.464843-.863281.964843-1.214844 1.488281-9.992187 12.015625-19.042968 24.835937-26.96875 38.363281-16.335937 27.875-46.578125 45.191406-78.925781 45.191406-16.144531 0-32.082031-4.339844-46.097656-12.550781-7.59375-4.449219-14.382813-9.882813-20.269531-16.105469-.066407-.066406-.132813-.132812-.199219-.199218-10.335938-10.988282-17.828125-24.441407-21.742188-39.445313-6.167969-23.613281-2.765625-48.214844 9.570313-69.273437 38.316406-65.386719 92.335937-121.003907 156.222656-160.835938 14.640625-9.128906 31.117188-13.773438 47.773438-13.773438 10.894531 0 21.863281 1.984376 32.445312 6 26.984375 10.238282 47.15625 31.972657 55.351562 59.625 11.628907 39.25-4.347656 81.707032-38.851562 103.238282zm0 0"/><path d="m15.136719 421.730469c.4375 0 .882812-.03125 1.324219-.089844l.488281-.070313c5.457031-.851562 9.191406-5.964843 8.34375-11.421874-.851563-5.453126-5.960938-9.191407-11.421875-8.339844l-.101563.015625c-5.464843.742187-9.28125 5.769531-8.546875 11.234375.671875 5.023437 4.980469 8.671875 9.914063 8.671875zm0 0"/></svg>