<?xml version="1.0" encoding="utf-8"?>
<!-- Generator: Adobe Illustrator 16.0.0, SVG Export Plug-In . SVG Version: 6.00 Build 0)  -->
<!DOCTYPE svg PUBLIC "-//W3C//DTD SVG 1.1//EN" "http://www.w3.org/Graphics/SVG/1.1/DTD/svg11.dtd">
<svg version="1.1" id="Capa_1" xmlns="http://www.w3.org/2000/svg" xmlns:xlink="http://www.w3.org/1999/xlink" x="0px" y="0px"
	 width="4vw" height="3vh" viewBox="0 0 617.951 405.351" enable-background="new 0 0 617.951 405.351"
	 xml:space="preserve">
<g>
	<g>
		<path fill="#002F5B" d="M469.627,52.794H444.18V32.626c0-5.807-4.752-10.559-10.56-10.559c-5.807,0-10.559,4.751-10.559,10.559
			v20.167H319.587V32.626c0-5.807-4.751-10.559-10.559-10.559s-10.559,4.751-10.559,10.559v20.167H193.937V32.626
			c0-5.807-4.751-10.559-10.559-10.559c-5.807,0-10.559,4.751-10.559,10.559v20.167h-24.391c-23.229,0-42.129,19.533-42.129,42.763
			v245.492c0,23.334,18.794,42.234,42.129,42.234h321.092c23.335,0,42.129-18.9,42.129-42.129V95.557
			C511.756,72.327,492.856,52.794,469.627,52.794z M490.638,341.048c0,11.613-9.292,21.012-20.906,21.117h-0.105H148.429
			c-11.614,0-21.012-9.398-21.012-21.012v-0.105V95.557c0-11.72,9.397-21.646,21.012-21.646h24.391v15.31
			c0,5.808,4.752,10.559,10.559,10.559c5.808,0,10.559-4.751,10.559-10.559v-15.31h104.532v15.31
			c0,5.808,4.751,10.559,10.559,10.559s10.559-4.751,10.559-10.559v-15.31h103.476v15.31c0,5.808,4.752,10.559,10.559,10.559
			c5.808,0,10.56-4.751,10.56-10.559v-15.31h25.446c11.72,0,21.012,10.031,21.012,21.646V341.048z"/>
	</g>
</g>
<g>
	<g>
		<path fill="#002F5B" d="M281.259,142.543h-18.478c-5.808,0-10.56,4.751-10.56,10.559c0,5.808,4.752,10.559,10.56,10.559h18.478
			c5.808,0,10.559-4.751,10.559-10.559C291.817,147.294,287.066,142.543,281.259,142.543z"/>
	</g>
</g>
<g>
	<g>
		<path fill="#002F5B" d="M354.747,142.543h-18.478c-5.807,0-10.559,4.751-10.559,10.559c0,5.808,4.752,10.559,10.559,10.559h18.478
			c5.808,0,10.56-4.751,10.56-10.559C365.306,147.294,360.66,142.543,354.747,142.543z"/>
	</g>
</g>
<g>
	<g>
		<path fill="#002F5B" d="M428.87,142.543h-18.478c-5.808,0-10.559,4.751-10.559,10.559c0,5.808,4.751,10.559,10.559,10.559h18.478
			c5.808,0,10.559-4.751,10.559-10.559C439.428,147.294,434.677,142.543,428.87,142.543z"/>
	</g>
</g>
<g>
	<g>
		<path fill="#002F5B" d="M281.259,215.398h-18.478c-5.808,0-10.56,4.752-10.56,10.559c0,5.809,4.752,10.559,10.56,10.559h18.478
			c5.808,0,10.559-4.75,10.559-10.559C291.817,220.15,287.066,215.398,281.259,215.398z"/>
	</g>
</g>
<g>
	<g>
		<path fill="#002F5B" d="M207.242,215.398h-18.584c-5.807,0-10.559,4.752-10.559,10.559c0,5.809,4.752,10.559,10.559,10.559h18.479
			c5.807,0,10.559-4.75,10.559-10.559C217.695,220.15,213.049,215.398,207.242,215.398z"/>
	</g>
</g>
<g>
	<g>
		<path fill="#002F5B" d="M354.747,215.398h-18.478c-5.807,0-10.559,4.752-10.559,10.559c0,5.809,4.752,10.559,10.559,10.559h18.478
			c5.808,0,10.56-4.75,10.56-10.559C365.306,220.15,360.66,215.398,354.747,215.398z"/>
	</g>
</g>
<g>
	<g>
		<path fill="#002F5B" d="M428.87,215.398h-18.478c-5.808,0-10.559,4.752-10.559,10.559c0,5.809,4.751,10.559,10.559,10.559h18.478
			c5.808,0,10.559-4.75,10.559-10.559C439.428,220.15,434.677,215.398,428.87,215.398z"/>
	</g>
</g>
<g>
	<g>
		<path fill="#002F5B" d="M281.259,287.198h-18.478c-5.808,0-10.56,4.751-10.56,10.559s4.752,10.56,10.56,10.56h18.478
			c5.808,0,10.559-4.752,10.559-10.56S287.066,287.198,281.259,287.198z"/>
	</g>
</g>
<g>
	<g>
		<path fill="#002F5B" d="M207.242,287.198h-18.584c-5.807,0-10.559,4.751-10.559,10.559s4.752,10.56,10.559,10.56h18.479
			c5.807,0,10.559-4.752,10.559-10.56S213.049,287.198,207.242,287.198z"/>
	</g>
</g>
<g>
	<g>
		<path fill="#002F5B" d="M354.747,287.198h-18.478c-5.807,0-10.559,4.751-10.559,10.559s4.752,10.56,10.559,10.56h18.478
			c5.808,0,10.56-4.752,10.56-10.56S360.66,287.198,354.747,287.198z"/>
	</g>
</g>
</svg>
