<?xml version="1.0" encoding="utf-8"?>
<!-- Generator: Adobe Illustrator 24.0.3, SVG Export Plug-In . SVG Version: 6.00 Build 0)  -->
<svg version="1.1" id="Capa_1" xmlns="http://www.w3.org/2000/svg" xmlns:xlink="http://www.w3.org/1999/xlink" x="0px" y="0px"
	 viewBox="0 0 512 512" style="enable-background:new 0 0 512 512;" xml:space="preserve">
<style type="text/css">
	.st0{fill:none;stroke:#000000;stroke-width:6;stroke-miterlimit:10;}
</style>
<g>
	<g>
		<path d="M-98.6,184.5c-1.9-1.9-4.7-2.4-7.1-1.5l-211.8,84.7c-2.4,1-4,3.3-4.1,5.9c-0.1,2.6,1.4,5,3.7,6.2l83.5,40.5l40.5,83.5
			c1.1,2.3,3.4,3.7,5.9,3.7c0.1,0,0.2,0,0.2,0c2.6-0.1,4.9-1.7,5.9-4.1l84.7-211.8C-96.2,189.1-96.8,186.3-98.6,184.5z
			 M-298.8,274.4l168.1-67.3l-100.2,100.2L-298.8,274.4z M-188.6,384.7l-32.9-67.9l100.2-100.2L-188.6,384.7z"/>
	</g>
</g>
<g>
	<path class="st0" d="M378.1,122.6v106.7h-42.6V122.6c0-40.1-35.8-72.8-79.9-72.8c-44.1,0-79.9,32.7-79.9,72.8v106.7h-42.6V122.6
		C133.2,61.1,188.1,11,255.7,11S378.1,61.1,378.1,122.6z"/>
	<path class="st0" d="M391.5,228.9H119.9c-17.6,0-32,14.1-32,31.4v209.3c0,17.3,14.4,31.4,32,31.4h271.6c17.6,0,32-14.1,32-31.4
		V260.3C423.4,243.1,409,228.9,391.5,228.9z"/>
	<path class="st0" d="M290.3,337.8c0,12.1-6.5,22.7-16.2,28.8l9.2,59.7H228l9.2-59.7c-9.7-6-16.2-16.7-16.2-28.8
		c0-18.8,15.5-34,34.6-34C274.8,303.8,290.3,319,290.3,337.8z"/>
</g>
</svg>
