<?xml version="1.0" encoding="UTF-8"?>
<svg xmlns="http://www.w3.org/2000/svg" viewBox="0 0 512 512" width="512" height="512"><g id="outline"><path d="M464,48H448V36a28,28,0,0,0-56,0V48H360V36a28,28,0,0,0-56,0V48H272V36a28,28,0,0,0-56,0V48H184V36a28,28,0,0,0-56,0V48H112A32.036,32.036,0,0,0,80,80V197.886A423.211,423.211,0,0,1,17.187,419.808,8,8,0,0,0,24,432H80v24a8,8,0,0,0,8,8H488a8,8,0,0,0,8-8V80A32.036,32.036,0,0,0,464,48ZM408,36a12,12,0,0,1,24,0V84a12,12,0,0,1-24,0Zm-88,0a12,12,0,0,1,24,0V84a12,12,0,0,1-24,0Zm-88,0a12,12,0,0,1,24,0V84a12,12,0,0,1-24,0Zm-88,0a12,12,0,0,1,24,0V84a12,12,0,0,1-24,0ZM96,197.886V80a16.019,16.019,0,0,1,16-16h16V84a28,28,0,0,0,56,0V64h32V84a28,28,0,0,0,56,0V64h32V84a28,28,0,0,0,56,0V64h32V84a28,28,0,0,0,56,0V64h16a16.019,16.019,0,0,1,16,16v98.466A353.492,353.492,0,0,1,450.543,320H78.688A439.32,439.32,0,0,0,96,197.886ZM73.727,336H443.08a352.883,352.883,0,0,1-20.045,35.1,8.047,8.047,0,0,0-.708,1.066A355.421,355.421,0,0,1,388.474,416H38.048A439.271,439.271,0,0,0,73.727,336ZM480,448H96V432H392a8,8,0,0,0,5.878-2.574A371.859,371.859,0,0,0,433.674,384H480Zm0-80H443.811a368.548,368.548,0,0,0,18.413-34.979,7.963,7.963,0,0,0,1.637-3.561A367.841,367.841,0,0,0,480,286.253Z"/><path d="M238.682,288.861A59.7,59.7,0,0,0,280,272.4a47.236,47.236,0,0,0,76.87-17.247l24.032-63.1a47.229,47.229,0,0,0-88.274-33.618l-10.817,28.4c-.2-.209-.394-.426-.6-.633a60.138,60.138,0,1,0-42.523,102.661Zm0-16a43.806,43.806,0,0,1-25.037-7.787l60.187-60.186a8.063,8.063,0,0,0,1.082-1.352,44.129,44.129,0,0,1-36.232,69.325Zm103.231-23.4a31.237,31.237,0,0,1-51.8,10.425,60.38,60.38,0,0,0,3.091-56.542l57.88,22.042Zm-34.338-85.332a31.23,31.23,0,0,1,58.37,22.228l-9.169,24.076L298.406,188.2Zm-100.1,33.389a44.2,44.2,0,0,1,56.4-5.024,8.067,8.067,0,0,0-1.351,1.082l-60.18,60.18A44.2,44.2,0,0,1,207.472,197.515Z"/><path d="M336,352a24,24,0,1,0,24,24A24.027,24.027,0,0,0,336,352Zm0,32a8,8,0,1,1,8-8A8.009,8.009,0,0,1,336,384Z"/><path d="M256,352a24,24,0,1,0,24,24A24.027,24.027,0,0,0,256,352Zm0,32a8,8,0,1,1,8-8A8.009,8.009,0,0,1,256,384Z"/><path d="M176,352a24,24,0,1,0,24,24A24.027,24.027,0,0,0,176,352Zm0,32a8,8,0,1,1,8-8A8.009,8.009,0,0,1,176,384Z"/></g></svg>
