<svg id="Capa_1" enable-background="new 0 0 512 512" height="512" viewBox="0 0 512 512" width="512" xmlns="http://www.w3.org/2000/svg"><g><path d="m107.577 62.327c-2.929 2.93-2.929 7.678 0 10.607l20.558 20.558c1.465 1.464 3.385 2.196 5.304 2.196s3.839-.732 5.304-2.196l36.784-36.784c2.929-2.93 2.929-7.678 0-10.607-2.93-2.928-7.678-2.928-10.607 0l-31.48 31.481-15.254-15.255c-2.931-2.928-7.679-2.928-10.609 0z"/><path d="m398.324 41.921c-2.93-2.928-7.678-2.928-10.607 0l-17.268 17.268-17.268-17.268c-2.93-2.928-7.678-2.928-10.607 0-2.929 2.93-2.929 7.678 0 10.607l17.268 17.268-17.268 17.268c-2.929 2.93-2.929 7.678 0 10.607 1.465 1.464 3.385 2.196 5.304 2.196s3.839-.732 5.304-2.196l17.268-17.268 17.268 17.268c1.465 1.464 3.385 2.196 5.304 2.196s3.839-.732 5.304-2.196c2.929-2.93 2.929-7.678 0-10.607l-17.268-17.268 17.268-17.268c2.927-2.929 2.927-7.677-.002-10.607z"/><path d="m424.809 0h-108.72c-8.512 0-15.437 6.925-15.437 15.437v108.719c0 8.513 6.925 15.438 15.437 15.438h108.72c8.512 0 15.437-6.925 15.437-15.438v-108.719c-.001-8.512-6.926-15.437-15.437-15.437zm.436 124.155c0 .241-.196.438-.437.438h-108.72c-.24 0-.437-.196-.437-.438v-108.718c0-.24.196-.437.437-.437h108.72c.24 0 .437.196.437.437z"/><path d="m334.646 376.551-11.899-5.538c13.238-14.985 21.297-34.648 21.297-56.168v-51.241l10.219-20.138c4.911-9.678 4.552-21.036-.96-30.385-5.513-9.349-15.279-15.16-26.126-15.547-.095-.004-.176-.067-.202-.16-3.869-13.727-16.501-23.15-30.776-22.947l-94.689 1.197c-5.417.115-10.617-1.96-14.537-5.756l-12.466-12.069c-2.525-2.445-6.097-3.502-9.552-2.839-3.447.667-6.357 2.976-7.785 6.178-9.106 20.419-11.18 39.969-6.163 58.105 3.082 11.146 12.138 19.485 23.141 22.018v42.243c0 4.143 3.357 7.5 7.5 7.5s7.5-3.357 7.5-7.5v-41.427h99.622c4.912 0 9.438 3.083 11.529 7.855 4.582 10.454 14.244 16.732 28.746 18.735v46.177c0 38.57-31.379 69.949-69.948 69.949-38.57 0-69.949-31.379-69.949-69.949v-1.354c0-4.143-3.357-7.5-7.5-7.5s-7.5 3.357-7.5 7.5v1.354c0 21.52 8.059 41.183 21.297 56.168l-11.899 5.538c-17.636 8.207-29.031 26.079-29.031 45.531v75.114c0 8.163 6.641 14.804 14.804 14.804h17.597c4.143 0 7.5-3.357 7.5-7.5s-3.357-7.5-7.5-7.5h-17.4v-74.918c0-13.643 7.991-26.176 20.36-31.932l17.372-8.085c6.908 5.341 14.648 9.652 23.004 12.678v12.489c0 15.905 12.94 28.845 28.846 28.845s28.845-12.939 28.845-28.845v-12.489c8.356-3.026 16.096-7.338 23.005-12.679l17.372 8.085c12.368 5.756 20.36 18.29 20.36 31.933v74.919h-131.779c-4.143 0-7.5 3.357-7.5 7.5s3.357 7.5 7.5 7.5h131.973c8.163 0 14.804-6.641 14.804-14.804v-75.113c0-19.453-11.396-37.325-29.032-45.532zm-20.61-132.64c-4.482-10.227-14.4-16.834-25.268-16.834h-107.606c-7.316 0-13.772-4.865-15.699-11.832-3.67-13.27-2.669-27.175 3.073-42.347l8.002 7.747c6.794 6.577 15.756 10.151 25.18 9.977l94.688-1.197c.085-.001.168-.002.252-.002 7.367 0 13.875 4.912 15.879 12.021 1.802 6.393 7.471 10.846 14.105 11.081 5.789.206 10.797 3.187 13.738 8.176 2.942 4.989 3.126 10.812.505 15.978l-8.77 17.283c-12.784-1.449-16.449-6.331-18.079-10.051zm-41.096 163.321c0 7.634-6.211 13.845-13.845 13.845-7.635 0-13.846-6.211-13.846-13.845v-8.585c4.509.743 9.13 1.146 13.846 1.146 4.715 0 9.336-.404 13.845-1.146z"/><path d="m230.312 265.929c-4.143 0-7.5 3.357-7.5 7.5v.881c0 4.143 3.357 7.5 7.5 7.5s7.5-3.357 7.5-7.5v-.881c0-4.143-3.357-7.5-7.5-7.5z"/><path d="m287.878 281.81c4.143 0 7.5-3.357 7.5-7.5v-.881c0-4.143-3.357-7.5-7.5-7.5s-7.5 3.357-7.5 7.5v.881c0 4.142 3.357 7.5 7.5 7.5z"/><path d="m269.36 308.147c-7.004 4.19-13.526 4.189-20.53 0-3.552-2.126-8.158-.968-10.286 2.587-2.126 3.555-.969 8.159 2.587 10.286 5.876 3.515 11.92 5.272 17.965 5.272 6.044 0 12.088-1.758 17.964-5.272 3.556-2.127 4.713-6.731 2.587-10.286-2.127-3.557-6.736-4.711-10.287-2.587z"/><path d="m322.743 470.447c4.143 0 7.5-3.357 7.5-7.5s-3.357-7.5-7.5-7.5h-34.865c-4.143 0-7.5 3.357-7.5 7.5s3.357 7.5 7.5 7.5z"/><path d="m211.349 124.155v-108.718c0-8.512-6.925-15.437-15.438-15.437h-40.088c-4.143 0-7.5 3.357-7.5 7.5s3.357 7.5 7.5 7.5h40.088c.241 0 .438.196.438.437v108.719c0 .241-.196.438-.438.438h-108.719c-.241 0-.438-.196-.438-.438v-108.719c0-.24.196-.437.438-.437h38.644c4.143 0 7.5-3.357 7.5-7.5s-3.357-7.5-7.5-7.5h-38.644c-8.512 0-15.437 6.925-15.437 15.437v108.719c0 8.513 6.925 15.438 15.438 15.438h108.719c8.512-.001 15.437-6.926 15.437-15.439z"/></g></svg>