<svg id="Capa_1" enable-background="new 0 0 512.071 512.071" height="512" viewBox="0 0 512.071 512.071" width="512" xmlns="http://www.w3.org/2000/svg"><g><g clip-rule="evenodd" fill-rule="evenodd"><path d="m150.281 150.281 102.288 102.288c2.453-2.441 6.125-3.65 9.877-2.591 13.92 3.73 27.839 7.464 41.757 11.199 8.364-5.13 17.352-9.34 26.823-12.49l70.254-70.254c38.383-38.384 38.383-101.192 0-139.576-38.383-38.383-101.192-38.383-139.575 0z" fill="#dfecff"/><path d="m252.569 252.569-102.288-102.288-111.425 111.424c-38.383 38.383-38.383 101.192 0 139.576s101.192 38.384 139.575 0l70.253-70.253c3.15-9.47 7.359-18.456 12.487-26.817-3.746-13.96-7.491-27.919-11.235-41.892-1.006-3.782.228-7.358 2.633-9.75z" fill="#a0c8ff"/><path d="m304.203 261.177c-13.919-3.735-27.837-7.469-41.757-11.199-3.752-1.059-7.423.15-9.877 2.591-2.405 2.392-3.64 5.968-2.632 9.75 3.744 13.973 7.489 27.932 11.235 41.892-5.128 8.361-9.337 17.347-12.487 26.817-4.29 12.901-6.614 26.7-6.614 41.043 0 71.797 58.203 130 130 130s130-58.203 130-130-58.203-130-130-130c-14.343 0-28.142 2.324-41.043 6.615-9.473 3.151-18.461 7.361-26.825 12.491zm2.533 66.014c17.213 1.276 33.86 8.223 46.928 20.906-.084-23.105 5.799-46.524 18.407-66.027 12.607 19.5 18.491 42.924 18.406 66.027 13.067-12.683 29.715-19.63 46.928-20.906-1.18 15.917-7.208 31.35-18.138 43.917 16.194 1.364 30.976 7.95 42.804 18.145-13.342 11.501-30.445 18.409-49.091 18.409-1.581 0-3.151-.05-4.708-.148 6.279 6.296 10.412 14.785 12.303 24.489-12.815 4.406-25.759 4.023-36.525-2.192-4.782-2.761-8.781-6.47-11.978-10.906-3.197 4.436-7.197 8.145-11.979 10.906-10.766 6.215-23.71 6.598-36.525 2.193 1.891-9.705 6.025-18.194 12.303-24.49-1.558.098-3.128.148-4.709.148-18.646 0-35.749-6.908-49.091-18.409 11.828-10.195 26.611-16.781 42.804-18.145-10.93-12.566-16.958-28-18.139-43.917z" fill="#fff"/><path d="m353.664 348.098c-13.068-12.683-29.715-19.63-46.928-20.906 1.18 15.917 7.209 31.35 18.139 43.917-16.193 1.364-30.977 7.949-42.804 18.145 13.342 11.501 30.445 18.409 49.091 18.409 1.581 0 3.151-.05 4.709-.148-6.278 6.296-10.412 14.785-12.303 24.49 12.815 4.406 25.759 4.023 36.525-2.193 4.782-2.761 8.783-6.47 11.979-10.906 3.197 4.435 7.196 8.145 11.978 10.906 10.766 6.215 23.71 6.598 36.525 2.192-1.891-9.705-6.025-18.194-12.303-24.489 1.558.098 3.128.148 4.708.148 18.647 0 35.749-6.908 49.091-18.409-11.828-10.195-26.61-16.781-42.804-18.145 10.93-12.567 16.958-28 18.138-43.917-17.213 1.276-33.86 8.223-46.928 20.906.084-23.102-5.8-46.526-18.406-66.027-12.608 19.502-18.491 42.922-18.407 66.027z" fill="#a4dd90"/></g><g><path d="m372.07 232.071c-3.585 0-7.156.153-10.711.425l46.992-46.993c42.379-42.38 42.379-111.337 0-153.718-42.381-42.38-111.337-42.38-153.718 0l-222.848 222.849c-42.38 42.38-42.379 111.338 0 153.718 20.453 20.453 47.749 31.717 76.859 31.717s56.406-11.264 76.859-31.717l46.992-46.992c-.271 3.555-.425 7.125-.425 10.71 0 77.196 62.804 140 140 140s140-62.804 140-140c0-77.195-62.803-139.999-140-139.999zm-103.294-186.144c16.675-16.675 38.948-25.859 62.716-25.858 23.768 0 46.042 9.184 62.717 25.858 34.582 34.583 34.582 90.852 0 125.434l-68.663 68.663c-7.878 2.773-15.518 6.239-22.814 10.404-12.548-3.366-25.095-6.732-37.644-10.095-3.525-.981-7.195-.949-10.628-.016l-90.037-90.037zm-97.416 348.283c-16.675 16.675-38.948 25.858-62.716 25.858s-46.042-9.183-62.717-25.858c-34.582-34.583-34.582-90.852 0-125.434l104.353-104.353 89.994 89.994c-.915 3.351-.941 6.946.004 10.49 3.381 12.619 6.763 25.226 10.146 37.833-4.164 7.294-7.629 14.932-10.401 22.808zm200.71 97.861c-66.168 0-120-53.832-120-120 0-22.172 6.095-43.83 17.626-62.631 1.436-2.34 1.846-5.168 1.134-7.82-3.746-13.958-7.49-27.917-11.257-41.899.02-.044.102-.117.157-.118.042.012.085.024.127.035 13.548 3.63 27.095 7.265 40.642 10.899l1.112.299c2.653.711 5.479.301 7.819-1.134 18.806-11.534 40.466-17.63 62.639-17.63 66.168 0 120 53.832 120 120s-53.831 119.999-119.999 119.999z"/><path d="m468.6 381.678c-9.533-8.217-20.457-14.144-32.179-17.528 6.255-10.947 9.994-23.23 10.957-36.22.215-2.902-.844-5.753-2.901-7.811-2.057-2.057-4.902-3.121-7.811-2.901-13.326.988-26.131 5.035-37.394 11.686-2.505-19.111-8.879-36.911-18.803-52.262-1.842-2.85-5.004-4.571-8.398-4.571s-6.556 1.721-8.398 4.571c-9.924 15.351-16.298 33.151-18.804 52.263-11.263-6.652-24.067-10.698-37.394-11.686-2.907-.216-5.753.845-7.81 2.902s-3.117 4.909-2.901 7.81c.963 12.991 4.702 25.273 10.957 36.22-11.722 3.385-22.646 9.311-32.179 17.527-2.204 1.899-3.471 4.665-3.471 7.574s1.267 5.675 3.471 7.575c12.166 10.487 26.869 17.296 42.38 19.78-1.836 4.187-3.239 8.707-4.17 13.484-.954 4.896 1.847 9.748 6.564 11.369 6.751 2.321 13.483 3.475 19.978 3.474 7.72 0 15.101-1.635 21.778-4.869v22.006c0 5.523 4.477 10 10 10s10-4.477 10-10v-22.015c12.296 5.956 26.978 6.484 41.754 1.404 4.717-1.622 7.518-6.472 6.564-11.369-.931-4.778-2.333-9.297-4.169-13.484 15.512-2.484 30.214-9.293 42.38-19.78 2.204-1.899 3.471-4.665 3.471-7.574s-1.269-5.675-3.472-7.575zm-55.62 15.984c-1.359 0-2.73-.043-4.077-.128-4.15-.264-8.028 2.069-9.742 5.856-1.714 3.788-.906 8.241 2.029 11.185 2.754 2.762 5.028 6.191 6.751 10.145-5.923.683-12.593.068-18.891-3.569-3.448-1.991-6.431-4.713-8.866-8.092-1.88-2.608-4.898-4.154-8.113-4.153-3.215 0-6.233 1.546-8.113 4.154-2.434 3.378-5.417 6.1-8.866 8.091-6.299 3.637-12.968 4.25-18.892 3.569 1.723-3.954 3.997-7.383 6.751-10.145 2.936-2.943 3.744-7.396 2.031-11.183-1.713-3.788-5.588-6.121-9.74-5.859-12.511.786-24.991-2.143-35.889-8.293 8.11-4.598 17.043-7.382 26.361-8.167 3.753-.316 7.011-2.715 8.427-6.205 1.417-3.49.751-7.48-1.721-10.322-6.363-7.316-10.923-15.861-13.485-25.165 10.448 2.869 19.889 8.249 27.765 15.893 2.887 2.803 7.174 3.6 10.877 2.027 3.703-1.575 6.102-5.216 6.087-9.24-.057-15.575 2.872-30.823 8.407-44.374 5.534 13.55 8.463 28.798 8.406 44.373-.015 4.024 2.384 7.665 6.087 9.239 3.702 1.576 7.99.777 10.877-2.027 7.875-7.643 17.316-13.023 27.765-15.892-2.562 9.303-7.123 17.848-13.486 25.165-2.472 2.842-3.137 6.832-1.721 10.322 1.416 3.491 4.673 5.889 8.427 6.205 9.317.785 18.251 3.569 26.36 8.167-9.717 5.485-20.665 8.423-31.806 8.423z"/><path d="m277.557 89.576c2.559 0 5.119-.976 7.071-2.929l.005-.005c3.905-3.905 3.902-10.234-.003-14.14-3.905-3.904-10.239-3.903-14.145.002-3.905 3.905-3.905 10.237 0 14.143 1.954 1.953 4.513 2.929 7.072 2.929z"/><path d="m199.78 157.353c1.953 1.953 4.512 2.929 7.071 2.929s5.119-.976 7.071-2.929l38.888-38.888c3.905-3.905 3.905-10.237 0-14.143s-10.237-3.905-14.143 0l-38.887 38.888c-3.905 3.905-3.905 10.238 0 14.143z"/></g></g></svg>