<svg height="512" viewBox="0 0 64 64" width="512" xmlns="http://www.w3.org/2000/svg"><g id="Samples"><path d="m40 29v24a8 8 0 1 1 -16 0v-24z" fill="#57a4ff"/><path d="m40 29v24a8 8 0 0 1 -8 8 8.239 8.239 0 0 1 -2-.25 8.006 8.006 0 0 0 6-7.75v-24z" fill="#2488ff"/><path d="m57.27 7.48a2 2 0 1 1 3.46 2l-2 3.47-3.46-2z" fill="#c0ab91"/><path d="m53.4 10.18a2 2 0 0 1 1 .27l.87.5 3.46 2 .87.5a2 2 0 1 1 -2 3.46l-5.2-3a2 2 0 0 1 1-3.73z" fill="#c6c5ca"/><path d="m46 31a2 2 0 0 1 -.73-2.73l3-5.2.63-3.1 3.5-6.06 5.2 3-3.5 6.06-2.37 2.1-3 5.2a2 2 0 0 1 -1.73 1 2.031 2.031 0 0 1 -1-.27z" fill="#00eed1"/><rect fill="#c6c5ca" height="10" rx="4" width="28" x="18" y="3"/><path d="m32 51a5 5 0 0 1 -5-5c0-4 5-9 5-9s5 5 5 9a5 5 0 0 1 -5 5z" fill="#ff3051"/><path d="m37 46a5 5 0 0 1 -9.91.91 4.6 4.6 0 0 0 .91.09 5 5 0 0 0 5-5 9.368 9.368 0 0 0 -1.5-4.47c.31-.34.5-.53.5-.53s5 5 5 9z" fill="#cd2a00"/><path d="m24 13h16v16h-16z" fill="#00eed1"/><path d="m46 7v2a4 4 0 0 1 -4 4h-4a4 4 0 0 0 4-4v-2a4 4 0 0 0 -4-4h4a4 4 0 0 1 4 4z" fill="#898890"/><path d="m36 13h4v16h-4z" fill="#00ccb3"/><path d="m3 17h16v12h-16z" fill="#ffde55"/><path d="m41 7h2v2h-2z"/><path d="m37 7h2v2h-2z"/><path d="m42 2h-20a5 5 0 0 0 -5 5v2a5 5 0 0 0 5 5h1v39a9 9 0 0 0 18 0v-39h1a5 5 0 0 0 5-5v-2a5 5 0 0 0 -5-5zm-3 51a7 7 0 0 1 -14 0v-23h14zm0-25h-14v-14h14zm6-19a3.009 3.009 0 0 1 -3 3h-20a3.009 3.009 0 0 1 -3-3v-2a3.009 3.009 0 0 1 3-3h20a3.009 3.009 0 0 1 3 3z"/><path d="m31.293 36.293c-.216.216-5.293 5.343-5.293 9.707a6 6 0 0 0 12 0c0-4.364-5.077-9.491-5.293-9.707a1.029 1.029 0 0 0 -1.414 0zm.707 13.707a4 4 0 0 1 -4-4c0-2.5 2.46-5.8 4-7.536 1.54 1.736 4 5.036 4 7.536a4 4 0 0 1 -4 4z"/><path d="m27 22h4v4h2v-4h4v-2h-4v-4h-2v4h-4z"/><path d="m19 16h-16a1 1 0 0 0 -1 1v12a1 1 0 0 0 1 1h16a1 1 0 0 0 1-1v-12a1 1 0 0 0 -1-1zm-1 12h-14v-10h14z"/><path d="m6 20h2v2h-2z"/><path d="m10 20h6v2h-6z"/><path d="m6 24h10v2h-10z"/><path d="m12 32h-2v8a1 1 0 0 0 1 1h6v-2h-5z"/><path d="m19 39h2v2h-2z"/><path d="m60.5 5.88a3.016 3.016 0 0 0 -4.1 1.1l-1.5 2.6a2.932 2.932 0 0 0 -1.5-.4 2.982 2.982 0 0 0 -.78.1 3.006 3.006 0 0 0 -2.12 3.68 3.056 3.056 0 0 0 .63 1.16l-3.09 5.35a.943.943 0 0 0 -.12.3l-.6 2.94-2.92 5.06a3 3 0 0 0 5.2 3l2.92-5.06 2.24-1.99a.818.818 0 0 0 .2-.25l3.1-5.36a3.209 3.209 0 0 0 .53.07 3.056 3.056 0 0 0 .79-.1 3 3 0 0 0 .72-5.5l1.5-2.6a3.016 3.016 0 0 0 -1.1-4.1zm-7.19 16.45-2.24 1.99a1.156 1.156 0 0 0 -.2.25l-3 5.2a1.007 1.007 0 0 1 -1.37.36 1 1 0 0 1 -.37-1.36l3-5.2a.789.789 0 0 0 .12-.3l.6-2.94 2.92-5.05 3.46 2zm6.15-6.65a.978.978 0 0 1 -.6.47 1.01 1.01 0 0 1 -.76-.11l-5.2-3a.93.93 0 0 1 -.46-.6.963.963 0 0 1 .1-.76 1 1 0 0 1 1.36-.37l5.2 3a1 1 0 0 1 .36 1.37zm.41-6.7-1.5 2.6-1.74-1 1.5-2.6a1 1 0 0 1 1.74 1z"/></g></svg>