<svg id="Capa_1" enable-background="new 0 0 512 512" height="512" viewBox="0 0 512 512" width="512" xmlns="http://www.w3.org/2000/svg"><g><g><circle cx="184" cy="352" fill="#e0e0e2" r="144"/><circle cx="184" cy="352" fill="#00d7df" r="120"/><path d="m201 104h-185" fill="none"/><path d="m176 128h-160" fill="none"/><path d="m16 152h40v32h-40z" fill="#ffda44"/><path d="m16 48h80v32h-80z" fill="#ffda44"/><path d="m120 48h80v32h-80z" fill="#ff9811"/><path d="m456 472h40v24h-40z" fill="#ff9811"/><g fill="#ffda44"><g><circle cx="152" cy="376" r="24"/><circle cx="152" cy="376" r="8"/></g><circle cx="160" cy="288" r="8"/><circle cx="248" cy="400" r="8"/></g><g><path d="m456 128v162.333c0 1.731-.561 3.415-1.6 4.8l-20.8 51.734c-1.039 1.385-1.6 3.069-1.6 4.8v64.333c0 8.837-7.163 16-16 16s-16-7.163-16-16v-64.333c0-1.731-.561-3.415-1.6-4.8l-20.8-51.734c-1.039-1.385-1.6-3.069-1.6-4.8v-162.333z" fill="#e0e0e2"/><path d="m368 96h96c8.837 0 16 7.163 16 16s-7.163 16-16 16h-96c-8.837 0-16-7.163-16-16s7.163-16 16-16z" fill="#ff9811"/><path d="m404 16h24c11.046 0 20 8.954 20 20v60h-64v-60c0-11.046 8.954-20 20-20z" fill="#ffda44"/></g></g><g><path d="m16 112h185c4.418 0 8-3.582 8-8s-3.582-8-8-8h-185c-4.418 0-8 3.582-8 8s3.582 8 8 8z"/><path d="m16 136h160c4.418 0 8-3.582 8-8s-3.582-8-8-8h-160c-4.418 0-8 3.582-8 8s3.582 8 8 8z"/><path d="m16 192h40c4.418 0 8-3.582 8-8v-32c0-4.418-3.582-8-8-8h-40c-4.418 0-8 3.582-8 8v32c0 4.418 3.582 8 8 8zm8-32h24v16h-24z"/><path d="m16 88h80c4.418 0 8-3.582 8-8v-32c0-4.418-3.582-8-8-8h-80c-4.418 0-8 3.582-8 8v32c0 4.418 3.582 8 8 8zm8-32h64v16h-64z"/><path d="m120 88h80c4.418 0 8-3.582 8-8v-32c0-4.418-3.582-8-8-8h-80c-4.418 0-8 3.582-8 8v32c0 4.418 3.582 8 8 8zm8-32h64v16h-64z"/><path d="m496 464h-40c-4.418 0-8 3.582-8 8v24c0 4.418 3.582 8 8 8h40c4.418 0 8-3.582 8-8v-24c0-4.418-3.582-8-8-8zm-8 24h-24v-8h24z"/><path d="m200 360c-4.418 0-8 3.582-8 8h-9.013c-.751-2.895-1.906-5.67-3.431-8.242l6.385-6.385c3.124 3.124 8.19 3.124 11.314 0s3.124-8.19 0-11.314l-5.655-5.659-5.654-5.654c-3.124-3.124-8.19-3.124-11.314 0s-3.124 8.19 0 11.314l-6.385 6.385c-2.574-1.526-5.35-2.682-8.247-3.432v-9.013c4.418 0 8-3.582 8-8s-3.582-8-8-8h-16c-4.418 0-8 3.582-8 8s3.582 8 8 8v9.013c-2.895.75-5.67 1.905-8.242 3.431l-6.385-6.385c3.124-3.124 3.124-8.19 0-11.314s-8.19-3.124-11.314 0l-5.654 5.654-5.655 5.655c-3.124 3.124-3.124 8.19 0 11.314s8.19 3.124 11.314 0l6.385 6.385c-1.527 2.574-2.684 5.35-3.436 8.247h-9.013c0-4.418-3.582-8-8-8s-8 3.582-8 8v16c0 4.418 3.582 8 8 8s8-3.582 8-8h9.013c.751 2.895 1.906 5.67 3.431 8.242l-6.385 6.385c-3.124-3.124-8.19-3.124-11.314 0s-3.124 8.19 0 11.314l5.655 5.659 5.654 5.654c3.124 3.124 8.19 3.124 11.314 0s3.124-8.19 0-11.314l6.385-6.385c2.574 1.526 5.35 2.682 8.247 3.432v9.013c-4.418 0-8 3.582-8 8s3.582 8 8 8h16c4.418 0 8-3.582 8-8s-3.582-8-8-8v-9.013c2.895-.75 5.67-1.905 8.242-3.431l6.385 6.385c-3.124 3.124-3.124 8.19 0 11.314s8.19 3.124 11.314 0l5.659-5.655 5.655-5.655c3.124-3.124 3.124-8.19 0-11.314s-8.19-3.124-11.314 0l-6.385-6.385c1.526-2.574 2.681-5.35 3.431-8.246h9.013c0 4.418 3.582 8 8 8s8-3.582 8-8v-16c0-4.418-3.582-8-8-8zm-48 32c-8.837 0-16-7.163-16-16s7.163-16 16-16 16 7.163 16 16c-.01 8.832-7.168 15.99-16 16z"/><circle cx="152" cy="376" r="8"/><path d="m217.373 308.687 3.313 3.313h-12.686c-4.418 0-8 3.582-8 8s3.582 8 8 8h12.686l-3.313 3.313c-3.125 3.124-3.125 8.189-.001 11.314s8.189 3.125 11.314.001l3.314-3.314v12.686c0 4.418 3.582 8 8 8s8-3.582 8-8v-12.686l3.314 3.314c3.125 3.124 8.19 3.124 11.314-.001s3.124-8.19-.001-11.314l-3.313-3.313h12.686c4.418 0 8-3.582 8-8s-3.582-8-8-8h-12.686l3.313-3.313c3.125-3.124 3.125-8.189.001-11.314s-8.189-3.125-11.314-.001l-3.314 3.314v-12.686c0-4.418-3.582-8-8-8s-8 3.582-8 8v12.686l-3.314-3.314c-3.125-3.124-8.19-3.124-11.314.001s-3.124 8.19.001 11.314z"/><circle cx="160" cy="288" r="8"/><circle cx="248" cy="400" r="8"/><path d="m344 184h-48c-2.122-.001-4.158.841-5.66 2.34l-32.72 32.72c-49.433-27.438-110.023-25.106-157.2 6.05l-22.76-22.77c-1.502-1.499-3.538-2.341-5.66-2.34h-56c-4.418 0-8 3.582-8 8s3.582 8 8 8h52.69l18.72 18.72c-35.088 28.833-55.419 71.865-55.41 117.28 0 83.81 68.19 152 152 152s152-68.19 152-152c-.01-49.427-24.063-95.759-64.48-124.21l27.79-27.79h44.69c4.418 0 8-3.582 8-8s-3.582-8-8-8zm-160 32c21.494-.026 42.683 5.075 61.81 14.88l-5.97 5.96c-39.004-18.943-84.953-16.816-122.04 5.65l-5.81-5.81c21.575-13.542 46.537-20.711 72.01-20.68zm-38.34 54.34-16.16-16.15c30.181-16.851 66.457-18.8 98.27-5.28l-9.43 9.43c-3.126 3.126-3.126 8.194 0 11.32s8.194 3.126 11.32 0l13.01-13.02c52.708 32.392 69.177 101.38 36.784 154.088s-101.38 69.177-154.088 36.784-69.176-101.38-36.784-154.088c7.168-11.664 16.413-21.914 27.278-30.244l18.48 18.48c3.126 3.126 8.194 3.126 11.32 0s3.126-8.194 0-11.32zm174.34 81.66c0 74.99-61.01 136-136 136s-136-61.01-136-136c-.001-41.172 18.676-80.122 50.78-105.9l5.69 5.68c-55.38 43.929-64.663 124.434-20.734 179.814s124.434 64.663 179.814 20.734 64.663-124.434 20.734-179.814c-8.483-10.695-18.622-19.963-30.034-27.454l5.78-5.77c37.483 25.265 59.959 67.507 59.97 112.71z"/><path d="m296 176h24c4.418 0 8-3.582 8-8s-3.582-8-8-8h-24c-4.418 0-8 3.582-8 8s3.582 8 8 8z"/><path d="m296 152h24c4.418 0 8-3.582 8-8s-3.582-8-8-8h-24c-4.418 0-8 3.582-8 8s3.582 8 8 8z"/><path d="m432 488h-56c-4.418 0-8 3.582-8 8s3.582 8 8 8h56c4.418 0 8-3.582 8-8s-3.582-8-8-8z"/><path d="m432 464h-24c-4.418 0-8 3.582-8 8s3.582 8 8 8h24c4.418 0 8-3.582 8-8s-3.582-8-8-8z"/><path d="m464 88h-8v-52c-.017-15.457-12.543-27.983-28-28h-24c-15.457.017-27.983 12.543-28 28v52h-8c-13.255 0-24 10.745-24 24s10.745 24 24 24h8v192c.001 1.242.289 2.467.84 3.58l15.16 30.31v46.11c0 13.255 10.745 24 24 24s24-10.745 24-24v-46.11l15.16-30.31c.551-1.113.839-2.338.84-3.58v-192h8c13.255 0 24-10.745 24-24s-10.745-24-24-24zm-72-52c.006-6.625 5.375-11.994 12-12h24c6.625.006 11.994 5.375 12 12v52h-48zm48 116h-16c-4.418 0-8 3.582-8 8s3.582 8 8 8h16v16h-16c-4.418 0-8 3.582-8 8s3.582 8 8 8h16v16h-16c-4.418 0-8 3.582-8 8s3.582 8 8 8h16v16h-16c-4.418 0-8 3.582-8 8s3.582 8 8 8h16v62.11l-15.16 30.31c-.551 1.113-.839 2.338-.84 3.58v48c0 4.418-3.582 8-8 8s-8-3.582-8-8v-48c-.001-1.242-.289-2.467-.84-3.58l-15.16-30.31v-190.11h48zm24-32h-96c-4.418 0-8-3.582-8-8s3.582-8 8-8h96c4.418 0 8 3.582 8 8s-3.582 8-8 8z"/></g></g></svg>