<?xml version="1.0" encoding="utf-8"?>
<!-- Generator: Adobe Illustrator 24.0.3, SVG Export Plug-In . SVG Version: 6.00 Build 0)  -->
<svg version="1.1" id="Capa_1" xmlns="http://www.w3.org/2000/svg" xmlns:xlink="http://www.w3.org/1999/xlink" x="0px" y="0px"
	 viewBox="0 0 496 496" style="enable-background:new 0 0 496 496;" xml:space="preserve"  width="100%" height="100%">
<style type="text/css">
	.st0{fill:#FB5968;}
	.st1{fill:#CD2C5A;}
	.st2{fill:#ECECEC;}
</style>
<path class="st0" d="M231.9,462.3c-23.3,16.2-51.6,25.7-82.1,25.7h-0.6C69.9,488,5.5,423.7,5.5,344.3l0,0c0-21.3,4.7-42.3,13.8-61.5
	L149.5,8l88,185.7L231.9,462.3z"/>
<path class="st1" d="M141.5,328c0,59.2,28,111.8,71.4,145.4c6.6-3.2,13-7,19-11.2l5.6-268.6l-10.1-21.3
	C175.8,205,141.5,262.5,141.5,328z"/>
<circle class="st2" cx="325.5" cy="328" r="160"/>
<g>
	<ellipse class="st0" cx="325.5" cy="256" rx="64" ry="48"/>
	
		<ellipse transform="matrix(0.7069 -0.7073 0.7073 0.7069 -149.4209 391.404)" class="st0" cx="397.6" cy="376" rx="63.2" ry="47.7"/>
	
		<ellipse transform="matrix(0.7073 -0.7069 0.7069 0.7073 -191.6053 289.2896)" class="st0" cx="253.5" cy="376" rx="47.7" ry="63.2"/>
</g>
<path d="M325.5,160c-30.7,0-59.5,8.4-84.3,22.9L156.8,4.6c-1.3-2.8-4.1-4.6-7.2-4.6s-5.9,1.8-7.2,4.6L12.1,279.4
	C2.6,299.5-2.5,322-2.5,344.3c0,83.6,68,151.7,152.3,151.7c30.7,0,60.3-9.2,85.5-26.5c26.1,16.7,57,26.5,90.1,26.5
	c92.6,0,168-75.4,168-168S418.2,160,325.5,160z M149.2,480c-74.8,0-135.7-60.9-135.7-135.7c0-20,4.5-40.1,13.1-58.1L149.5,26.7
	l78.2,165c-42.4,30.5-70.2,80.2-70.2,136.3c0,53.3,25,100.8,63.8,131.6C199.9,472.9,175.3,480,149.2,480z M325.5,480
	c-83.8,0-152-68.2-152-152s68.2-152,152-152s152,68.2,152,152S409.4,480,325.5,480z"/>
<path d="M397.5,256c0-30.9-32.3-56-72-56s-72,25.1-72,56s32.3,56,72,56S397.5,286.9,397.5,256z M325.5,296c-30.9,0-56-17.9-56-40
	s25.1-40,56-40s56,17.9,56,40S356.4,296,325.5,296z"/>
<path d="M304.1,236.5l-5.1,15.2c8.5,2.9,17.4,4.3,26.6,4.3s18.1-1.5,26.6-4.3l-5.1-15.2C333.4,241.1,317.7,241.1,304.1,236.5z"/>
<path d="M387.4,363.6c-5.7,4.7-12.1,8.4-18.8,10.9l5.6,15c8.4-3.1,16.2-7.7,23.3-13.5c7.1-5.8,13.1-12.6,17.8-20.2l-13.6-8.5
	C398,353.4,393.1,358.9,387.4,363.6z"/>
<path d="M451.6,329.8c-7.7-9.9-19.4-16.2-32.9-17.5c-18.7-1.9-39,5.4-55.7,19.9c-29.5,25.5-38.2,65.9-19.4,90.1
	c7.7,9.9,19.4,16.2,32.9,17.5c1.9,0.2,3.8,0.3,5.8,0.3c17,0,34.9-7.2,49.9-20.2C461.6,394.3,470.3,353.9,451.6,329.8z M421.6,407.8
	c-13.2,11.4-29.5,17.4-43.6,16c-9.2-0.9-16.8-4.8-21.8-11.4c-13.6-17.5-5.9-48.1,17.3-68.2c11.9-10.4,26.4-16.2,39.5-16.2
	c1.4,0,2.8,0.1,4.1,0.2c9.2,0.9,16.8,4.8,21.8,11.4C452.5,357.1,444.8,387.7,421.6,407.8z"/>
<path d="M249.3,347.4l-13.6,8.5c4.7,7.6,10.7,14.4,17.8,20.2c7.1,5.8,14.9,10.4,23.3,13.5l5.6-15c-6.7-2.5-13-6.2-18.8-10.9
	C257.9,358.9,253.1,353.4,249.3,347.4z"/>
<path d="M288.1,332.2c-16.7-14.5-37-21.8-55.7-19.9c-13.5,1.3-25.2,7.5-32.9,17.5c-18.7,24.1-10,64.5,19.4,90.1
	c15,13,32.9,20.2,49.9,20.2c1.9,0,3.9-0.1,5.8-0.3c13.5-1.3,25.2-7.5,32.9-17.5C326.3,398.1,317.6,357.7,288.1,332.2z M294.9,412.4
	c-5.1,6.5-12.6,10.5-21.8,11.4c-14.2,1.4-30.4-4.6-43.6-16c-23.1-20-30.9-50.6-17.3-68.2c5.1-6.5,12.6-10.5,21.8-11.4
	c1.3-0.1,2.7-0.2,4.1-0.2c13.1,0,27.6,5.9,39.5,16.2C300.8,364.3,308.5,394.9,294.9,412.4z"/>
</svg>
