<?xml version="1.0" encoding="utf-8"?>
<!-- Generator: Adobe Illustrator 16.0.0, SVG Export Plug-In . SVG Version: 6.00 Build 0)  width="617.951px" height="405.351px" -->
<!DOCTYPE svg PUBLIC "-//W3C//DTD SVG 1.1//EN" "http://www.w3.org/Graphics/SVG/1.1/DTD/svg11.dtd">
<svg version="1.1" id="Capa_1" xmlns="http://www.w3.org/2000/svg" xmlns:xlink="http://www.w3.org/1999/xlink" x="0px" y="0px"
	 width="15vw" height="15vw" viewBox="0 0 617.951 405.351" enable-background="new 0 0 617.951 405.351"
	 xml:space="preserve">
<g>
	<g>
		<path fill="rgb(178,223,252)" d="M336.177,342.015l-86.314-133.428v-107.25c0-4.664-3.781-8.445-8.445-8.445h-42.224
			c-4.664,0-8.445,3.781-8.445,8.445v107.485l-78.696,133.782c-3.765,6.398-5.75,13.688-5.75,21.111
			c-0.001,22.994,18.639,41.633,41.632,41.635h153.779c7.903-0.004,15.638-2.287,22.275-6.576
			C343.028,386.466,348.486,361.054,336.177,342.015z M301.714,388.46H147.934c-4.427,0.008-8.774-1.174-12.59-3.418
			c-11.777-6.932-15.707-22.096-8.776-33.873l79.905-135.768c0.764-1.298,1.166-2.775,1.166-4.281V109.783h25.334v101.338
			c-0.001,1.627,0.469,3.219,1.352,4.585l87.657,135.479c2.528,3.906,3.874,8.461,3.876,13.115
			C325.862,377.638,315.053,388.457,301.714,388.46z"/>
	</g>
</g>
<g>
	<g>
		<path fill="rgb(178,223,252)" d="M227.949,245.515l-14.559-8.555l-71.705,121.885c-0.765,1.299-1.168,2.781-1.166,4.289
			c0.004,4.664,3.789,8.441,8.453,8.436h58.666v-16.889h-43.912L227.949,245.515z"/>
	</g>
</g>
<g>
	<g>
		<path fill="rgb(178,223,252)" d="M491.265,194.23h-131.62c-18.655,0-33.779,15.124-33.779,33.779v135.117
			c0.027,23.309,18.916,42.195,42.224,42.225h76.004c23.308-0.029,42.195-18.918,42.224-42.225V248.395l19.372-19.364
			c3.813-3.82,5.956-8.998,5.959-14.396C511.655,203.373,502.529,194.236,491.265,194.23z M493.741,217.09l-21.839,21.839
			c-1.583,1.582-2.474,3.73-2.474,5.97v118.228c0,13.99-11.343,25.334-25.335,25.334h-76.003c-13.992,0-25.334-11.344-25.334-25.334
			V228.009c0-9.328,7.562-16.889,16.889-16.889h131.621c0.93-0.002,1.822,0.367,2.479,1.025
			C495.108,213.513,495.107,215.726,493.741,217.09z"/>
	</g>
</g>
<g>
	<g>
		<path fill="rgb(178,223,252)" d="M435.649,244.899v109.782h-25.335v16.889h33.779c4.664,0,8.445-3.781,8.445-8.443V244.899H435.649z"/>
	</g>
</g>
<g>
	<g>
		<path fill="rgb(178,223,252)" d="M342.756,122.314V8.445c0-4.664-3.78-8.445-8.444-8.445h-59.114c-4.664,0-8.444,3.781-8.444,8.445v116.268
			c-10.307,3.173-20.222,7.499-29.557,12.895l8.444,14.618c9.922-5.729,20.575-10.084,31.668-12.946
			c3.73-0.963,6.337-4.33,6.334-8.183V16.889h42.224v112.24c0.002,4.053,2.884,7.535,6.865,8.293
			c29.611,5.661,56.237,21.687,75.101,45.205l13.165-10.573C401.125,147.29,373.613,129.8,342.756,122.314z"/>
	</g>
</g>
<g>
	<g>
		<path fill="rgb(178,223,252)" d="M465.206,118.227c-16.324,0-29.557,13.233-29.557,29.556c0,16.324,13.233,29.557,29.557,29.557
			s29.556-13.233,29.556-29.557S481.529,118.227,465.206,118.227z M465.206,160.451c-6.997,0-12.668-5.671-12.668-12.667
			s5.671-12.667,12.668-12.667c6.996,0,12.667,5.671,12.667,12.667S472.202,160.451,465.206,160.451z"/>
	</g>
</g>
<g>
	<g>
		<path fill="rgb(178,223,252)" d="M435.649,59.114c-13.992,0-25.335,11.343-25.335,25.334s11.343,25.334,25.335,25.334
			c13.991,0,25.334-11.343,25.334-25.334S449.64,59.114,435.649,59.114z M435.649,92.893c-4.664,0-8.445-3.781-8.445-8.445
			c0-4.664,3.781-8.444,8.445-8.444c4.663,0,8.444,3.781,8.444,8.445S440.312,92.893,435.649,92.893z"/>
	</g>
</g>
<g>
	<g>
		<path fill="rgb(178,223,252)" d="M135.858,67.558c-16.324,0-29.557,13.233-29.557,29.557c0,16.324,13.232,29.557,29.557,29.557
			s29.557-13.233,29.557-29.557C165.415,80.792,152.182,67.558,135.858,67.558z M135.858,109.783
			c-6.996,0-12.667-5.671-12.667-12.667c0-6.996,5.671-12.667,12.667-12.667s12.667,5.671,12.667,12.667
			C148.525,104.112,142.854,109.783,135.858,109.783z"/>
	</g>
</g>
<g>
	<g>
		<path fill="rgb(178,223,252)" d="M173.86,8.445c-13.992,0-25.335,11.342-25.335,25.334s11.343,25.334,25.335,25.334
			c13.991,0,25.334-11.343,25.334-25.334S187.851,8.445,173.86,8.445z M173.86,42.224c-4.664,0-8.445-3.781-8.445-8.445
			c0-4.663,3.781-8.444,8.445-8.444c4.663,0,8.444,3.781,8.444,8.445C182.304,38.443,178.523,42.224,173.86,42.224z"/>
	</g>
</g>
<g>
	<g>
		<rect x="359.645" y="244.899" fill="rgb(178,223,252)" width="25.335" height="16.89"/>
	</g>
</g>
<g>
	<g>
		<rect x="359.645" y="278.678" fill="rgb(178,223,252)" width="16.89" height="16.89"/>
	</g>
</g>
<g>
	<g>
		<rect x="359.645" y="312.458" fill="rgb(178,223,252)" width="25.335" height="16.889"/>
	</g>
</g>
<g>
	<g>
		<rect x="359.645" y="346.236" fill="rgb(178,223,252)" width="16.89" height="16.891"/>
	</g>
</g>
<g>
	<g>
		<rect x="123.191" y="152.006" fill="rgb(178,223,252)" width="16.889" height="16.889"/>
	</g>
</g>
<g>
	<g>
		<rect x="148.525" y="194.23" fill="rgb(178,223,252)" width="16.89" height="16.889"/>
	</g>
</g>
<g>
	<g>
		<rect x="292.087" y="228.009" fill="rgb(178,223,252)" width="16.89" height="16.89"/>
	</g>
</g>
<g>
	<g>
		<rect x="275.197" y="194.23" fill="rgb(178,223,252)" width="16.89" height="16.889"/>
	</g>
</g>
<g>
	<g>
		<rect x="266.752" y="160.451" fill="rgb(178,223,252)" width="16.89" height="16.89"/>
	</g>
</g>
<g>
	<g>
		<rect x="275.197" y="346.236" fill="rgb(178,223,252)" width="16.89" height="16.891"/>
	</g>
</g>
<g>
	<g>
		<rect x="249.863" y="312.458" fill="rgb(178,223,252)" width="16.889" height="16.889"/>
	</g>
</g>
</svg>
