<svg width="12vw" height="12vw" viewBox="0 0 420 400" xmlns="http://www.w3.org/2000/svg">

 <g>
  <title>background</title>
  <rect fill="none" id="canvas_background" height="407.351" width="411.951" y="-1" x="-1"/>
 </g>
 <g>
  <title>Layer 1</title>
  <g id="svg_1">
   <g id="svg_2">
    <path id="svg_3" d="m231.314,344.55701l-86.314,-133.428l0,-107.25c0,-4.664 -3.781,-8.445 -8.445,-8.445l-42.224,0c-4.664,0 -8.445,3.781 -8.445,8.445l0,107.485l-78.696,133.782c-3.765,6.398 -5.75,13.688 -5.75,21.111c-0.001,22.994 18.639,41.633 41.632,41.635l153.779,0c7.903,-0.004 15.638,-2.287 22.275,-6.576c19.039,-12.308 24.497,-37.72 12.188,-56.759zm-34.463,46.445l-153.78,0c-4.427,0.008 -8.774,-1.174 -12.59,-3.418c-11.777,-6.932 -15.707,-22.096 -8.776,-33.873l79.905,-135.768c0.764,-1.298 1.166,-2.775 1.166,-4.281l0,-101.337l25.334,0l0,101.338c-0.001,1.627 0.469,3.219 1.352,4.585l87.657,135.479c2.528,3.906 3.874,8.461 3.876,13.115c0.004,13.338 -10.805,24.157 -24.144,24.16z" fill="rgb(0,47,91)"/>
   </g>
  </g>
  <g id="svg_4">
   <g id="svg_5">
    <path id="svg_6" d="m123.086,248.05701l-14.559,-8.555l-71.705,121.885c-0.765,1.299 -1.168,2.781 -1.166,4.289c0.004,4.664 3.789,8.441 8.453,8.436l58.666,0l0,-16.889l-43.912,0l64.223,-109.166z" fill="rgb(0,47,91)"/>
   </g>
  </g>
  <g id="svg_7">
   <g id="svg_8">
    <path id="svg_9" d="m386.402,196.77201l-131.62,0c-18.655,0 -33.779,15.124 -33.779,33.779l0,135.117c0.027,23.309 18.916,42.195 42.224,42.225l76.004,0c23.308,-0.029 42.195,-18.918 42.224,-42.225l0,-114.731l19.372,-19.364c3.813,-3.82 5.956,-8.998 5.959,-14.396c0.006,-11.262 -9.12,-20.399 -20.384,-20.405zm2.476,22.86l-21.839,21.839c-1.583,1.582 -2.474,3.73 -2.474,5.97l0,118.228c0,13.99 -11.343,25.334 -25.335,25.334l-76.003,0c-13.992,0 -25.334,-11.344 -25.334,-25.334l0,-135.118c0,-9.328 7.562,-16.889 16.889,-16.889l131.621,0c0.93,-0.002 1.822,0.367 2.479,1.025c1.363,1.368 1.362,3.581 -0.004,4.945z" fill="rgb(0,47,91)"/>
   </g>
  </g>
  <g id="svg_10">
   <g id="svg_11">
    <path id="svg_12" d="m330.786,247.44101l0,109.782l-25.335,0l0,16.889l33.779,0c4.664,0 8.445,-3.781 8.445,-8.443l0,-118.228l-16.889,0z" fill="rgb(0,47,91)"/>
   </g>
  </g>
  <g id="svg_13">
   <g id="svg_14">
    <path id="svg_15" d="m237.893,124.85601l0,-113.869c0,-4.664 -3.78,-8.445 -8.444,-8.445l-59.114,0c-4.664,0 -8.444,3.781 -8.444,8.445l0,116.268c-10.307,3.173 -20.222,7.499 -29.557,12.895l8.444,14.618c9.922,-5.729 20.575,-10.084 31.668,-12.946c3.73,-0.963 6.337,-4.33 6.334,-8.183l0,-114.208l42.224,0l0,112.24c0.002,4.053 2.884,7.535 6.865,8.293c29.611,5.661 56.237,21.687 75.101,45.205l13.165,-10.573c-19.873,-24.764 -47.385,-42.254 -78.242,-49.74z" fill="rgb(0,47,91)"/>
   </g>
  </g>
  <g id="svg_16">
   <g id="svg_17">
    <path id="svg_18" d="m360.343,120.76901c-16.324,0 -29.557,13.233 -29.557,29.556c0,16.324 13.233,29.557 29.557,29.557s29.556,-13.233 29.556,-29.557s-13.233,-29.556 -29.556,-29.556zm0,42.224c-6.997,0 -12.668,-5.671 -12.668,-12.667s5.671,-12.667 12.668,-12.667c6.996,0 12.667,5.671 12.667,12.667s-5.671,12.667 -12.667,12.667z" fill="rgb(0,47,91)"/>
   </g>
  </g>
  <g id="svg_19">
   <g id="svg_20">
    <path id="svg_21" d="m330.786,61.65601c-13.992,0 -25.335,11.343 -25.335,25.334s11.343,25.334 25.335,25.334c13.991,0 25.334,-11.343 25.334,-25.334s-11.343,-25.334 -25.334,-25.334zm0,33.779c-4.664,0 -8.445,-3.781 -8.445,-8.445c0,-4.664 3.781,-8.444 8.445,-8.444c4.663,0 8.444,3.781 8.444,8.445s-3.781,8.444 -8.444,8.444z" fill="rgb(0,47,91)"/>
   </g>
  </g>
  <g id="svg_22">
   <g id="svg_23">
    <path id="svg_24" d="m30.995,70.10001c-16.324,0 -29.557,13.233 -29.557,29.557c0,16.324 13.232,29.557 29.557,29.557s29.557,-13.233 29.557,-29.557c0,-16.323 -13.233,-29.557 -29.557,-29.557zm0,42.225c-6.996,0 -12.667,-5.671 -12.667,-12.667c0,-6.996 5.671,-12.667 12.667,-12.667s12.667,5.671 12.667,12.667c0,6.996 -5.671,12.667 -12.667,12.667z" fill="rgb(0,47,91)"/>
   </g>
  </g>
  <g id="svg_25">
   <g id="svg_26">
    <path id="svg_27" d="m68.997,10.98701c-13.992,0 -25.335,11.342 -25.335,25.334s11.343,25.334 25.335,25.334c13.991,0 25.334,-11.343 25.334,-25.334s-11.343,-25.334 -25.334,-25.334zm0,33.779c-4.664,0 -8.445,-3.781 -8.445,-8.445c0,-4.663 3.781,-8.444 8.445,-8.444c4.663,0 8.444,3.781 8.444,8.445c0,4.663 -3.781,8.444 -8.444,8.444z" fill="rgb(0,47,91)"/>
   </g>
  </g>
  <g id="svg_28">
   <g id="svg_29">
    <rect id="svg_30" height="16.89" width="25.335" fill="rgb(0,47,91)" y="247.44101" x="254.782"/>
   </g>
  </g>
  <g id="svg_31">
   <g id="svg_32">
    <rect id="svg_33" height="16.89" width="16.89" fill="rgb(0,47,91)" y="281.22001" x="254.782"/>
   </g>
  </g>
  <g id="svg_34">
   <g id="svg_35">
    <rect id="svg_36" height="16.889" width="25.335" fill="rgb(0,47,91)" y="315.00001" x="254.782"/>
   </g>
  </g>
  <g id="svg_37">
   <g id="svg_38">
    <rect id="svg_39" height="16.891" width="16.89" fill="rgb(0,47,91)" y="348.77801" x="254.782"/>
   </g>
  </g>
  <g id="svg_40">
   <g id="svg_41">
    <rect id="svg_42" height="16.889" width="16.889" fill="rgb(0,47,91)" y="154.54801" x="18.328"/>
   </g>
  </g>
  <g id="svg_43">
   <g id="svg_44">
    <rect id="svg_45" height="16.889" width="16.89" fill="rgb(0,47,91)" y="196.77201" x="43.662"/>
   </g>
  </g>
  <g id="svg_46">
   <g id="svg_47">
    <rect id="svg_48" height="16.89" width="16.89" fill="rgb(0,47,91)" y="230.55101" x="187.224"/>
   </g>
  </g>
  <g id="svg_49">
   <g id="svg_50">
    <rect id="svg_51" height="16.889" width="16.89" fill="rgb(0,47,91)" y="196.77201" x="170.334"/>
   </g>
  </g>
  <g id="svg_52">
   <g id="svg_53">
    <rect id="svg_54" height="16.89" width="16.89" fill="rgb(0,47,91)" y="162.99301" x="161.889"/>
   </g>
  </g>
  <g id="svg_55">
   <g id="svg_56">
    <rect id="svg_57" height="16.891" width="16.89" fill="rgb(0,47,91)" y="348.77801" x="170.334"/>
   </g>
  </g>
  <g id="svg_58">
   <g id="svg_59">
    <rect id="svg_60" height="16.889" width="16.889" fill="rgb(0,47,91)" y="315.00001" x="145"/>
   </g>
  </g>
 </g>
</svg>