<?xml version="1.0" encoding="utf-8"?>
<!-- Generator: Adobe Illustrator 16.0.0, SVG Export Plug-In . SVG Version: 6.00 Build 0)  -->
<!DOCTYPE svg PUBLIC "-//W3C//DTD SVG 1.1//EN" "http://www.w3.org/Graphics/SVG/1.1/DTD/svg11.dtd">
<svg version="1.1" id="Capa_1" xmlns="http://www.w3.org/2000/svg" xmlns:xlink="http://www.w3.org/1999/xlink" x="0px" y="0px"
	 width="10vw" height="14vh" viewBox="0 0 617.951 405.351" enable-background="new 0 0 617.951 405.351" 
	 xml:space="preserve" >
<g>
	<path fill="rgb(0,47,91)" d="M331.604,78.114c0.878,0.248,1.568,0.432,2.256,0.635c6.146,1.814,12.391,2.389,18.707,1.171
		c1.357-0.263,2.79-0.95,3.8-1.869c0.528-0.479,0.285-1.889,0.258-2.875c-0.023-0.831,0.276-1.101,1.076-1.144
		c1.617-0.087,3.252-0.141,4.84-0.426c6.282-1.124,11.731-4.001,16.532-8.147c2.69-2.326,4.998-4.965,6.275-8.356
		c0.847-2.254,0.094-3.405-2.24-3.532c-2.838-0.153-5.571,0.393-8.196,1.39c-9.304,3.538-18.842,4.139-28.583,2.434
		c-8.023-1.402-15.819-3.677-23.203-7.06c-10.117-4.635-20.077-9.623-30.068-14.531c-6.272-3.082-12.455-6.337-19.135-8.507
		c-5.033-1.635-9.709-1.561-14.272,1.636c-5.18,3.628-8.631,8.535-11.309,14.074c-2.04,4.219-3.775,8.587-5.763,12.832
		c-1.978,4.216-5.09,7.12-9.937,7.565c-1.939,0.179-3.91,0.031-5.924,0.031c-0.136,5.302-0.319,10.708-0.403,16.115
		c-0.087,5.462-0.058,10.925-0.128,16.387c-0.011,0.88,0.415,1.178,1.128,1.395c1.723,0.528,3.422,1.135,5.152,1.628
		c4.934,1.408,9.841,2.967,15.08,2.708c1.853-0.093,3.585-0.538,5.033-1.704c1.718-1.385,3.378-2.847,5.015-4.328
		c1.655-1.498,1.808-1.559,3.728-0.454c3.731,2.149,7.588,3.906,11.892,4.647c4.455,0.768,8.767-0.724,10.759-5.21
		c0.603-1.36,1.373-1.502,2.634-1.108c2.405,0.75,4.819,1.495,7.271,2.072c3.486,0.823,6.962,0.948,10.259-0.845
		c2.746-1.492,4.198-4.019,5.34-6.762c0.425-1.019,0.894-1.326,2.019-0.95c3.777,1.265,7.638,1.996,11.667,1.82
		c3.821-0.168,6.671-2.234,7.603-5.92C331.146,81.416,331.308,79.854,331.604,78.114z M203.551,63.233
		c-1.017,0.09-1.599,0.126-2.176,0.194c-6.197,0.708-10.525-1.332-13.417-6.89c-2.388-4.591-4.277-9.439-6.507-14.117
		c-2.434-5.113-5.668-9.618-10.331-12.994c-3.594-2.602-7.397-3.937-11.913-2.906c-4.523,1.033-8.778,2.75-12.901,4.765
		c-8.186,3.998-16.271,8.196-24.425,12.261c-8.559,4.268-17.238,8.295-26.446,10.971c-4.394,1.276-8.88,2.404-13.405,3.015
		c-4.348,0.588-8.806,0.653-13.202,0.525c-4.94-0.142-9.645-1.68-14.292-3.317c-2.608-0.919-5.311-1.382-8.1-1.113
		c-1.498,0.144-2.168,0.722-1.909,2.141c0.238,1.295,0.675,2.669,1.416,3.735c6.206,8.928,14.797,13.741,25.634,14.504
		c2.049,0.146,2.179,0.142,1.753,2.069c-0.279,1.265,0.075,2.124,1.205,2.679c0.684,0.336,1.364,0.727,2.092,0.917
		c5.122,1.352,10.274,1.043,15.407,0.098c2.148-0.396,4.254-1.028,6.577-1.604c0.118,1.032,0.222,1.91,0.314,2.788
		c0.362,3.369,1.625,6.281,5.13,7.205c2.257,0.596,4.74,0.753,7.07,0.541c2.618-0.24,5.192-1.058,7.751-1.747
		c0.926-0.249,1.315,0.005,1.649,0.797c0.42,0.994,0.863,1.99,1.405,2.921c2.15,3.68,5.692,5.983,10.826,5.337
		c3.726-0.469,7.39-1.546,11.032-2.529c1.332-0.36,1.851,0.081,2.343,1.148c1.313,2.853,3.479,4.604,6.619,5.218
		c2.686,0.527,5.256-0.003,7.686-0.903c2.946-1.09,5.759-2.548,8.593-3.921c1.202-0.583,2.188-0.822,3.224,0.345
		c0.895,1.006,2.048,1.781,2.966,2.77c3.193,3.441,7.304,4.227,11.559,3.366c5.453-1.103,10.795-2.773,16.167-4.261
		c0.373-0.104,0.849-0.727,0.855-1.113c0.044-2.842-0.015-5.685-0.05-8.529c-0.064-5.23-0.144-10.46-0.194-15.691
		C203.528,69.077,203.551,66.246,203.551,63.233z M203.97,159.168c-5.49-0.319-11.005-0.414-16.463-1.019
		c-5.398-0.599-10.757-1.623-16.104-2.621c-7.169-1.337-13.993-3.764-20.52-7.005c-3.491-1.731-6.818-3.709-9.264-6.87
		c-2.469-3.193-1.958-9.276,3.61-10.461c1.228-0.261,2.491-0.513,3.735-0.505c3.648,0.023,7.296,0.139,10.94,0.304
		c1.344,0.06,2.68,0.342,4.017,0.545c3.825,0.586,7.16,2.413,10.459,4.267c3.384,1.903,6.912,2.718,10.786,2.166
		c3.639-0.519,7.187-1.235,10.392-3.172c1.15-0.695,1.475-1.573,1.147-2.845c-0.665-2.567-2.14-4.658-3.86-6.581
		c-2.929-3.272-6.223-5.917-10.939-5.928c-1.887-0.004-3.775-0.044-5.663-0.07c-1.08-0.017-2.167-0.145-3.233-0.038
		c-3.766,0.373-7.524,0.803-11.28,1.252c-4.997,0.599-10.02,1.05-14.972,1.909c-4.636,0.803-9.087,2.333-12.924,5.218
		c-3.103,2.333-4.96,5.288-4.549,9.37c0.33,3.267,1.843,5.997,3.739,8.553c3.996,5.393,9.266,9.318,14.952,12.719
		c8.779,5.249,18.237,8.86,28.212,10.996c5.224,1.118,10.555,1.767,15.856,2.5c3.12,0.431,6.271,0.632,9.413,0.904
		c3.944,0.34,7.886,0.815,11.838,0.935c6.779,0.206,13.362,1.25,19.667,3.793c5.461,2.202,10.522,5.025,14.138,9.855
		c2.885,3.854,3.938,8.059,2.043,12.707c-1.77,4.34-5.027,7.441-8.97,9.621c-4.641,2.565-9.55,4.651-14.376,6.873
		c-0.932,0.43-1.261,0.959-1.248,1.946c0.012,0.974,0.134,1.64,1.189,2.119c2.624,1.191,5.213,2.477,7.718,3.9
		c1.042,0.593,1.835,0.614,2.861,0.122c6.284-3.013,12.322-6.428,17.754-10.824c3.952-3.201,7.441-6.837,9.986-11.294
		c2.1-3.68,3.399-7.634,3.083-11.878c-0.411-5.534-3.022-10.132-6.861-14.04c-4.024-4.096-8.95-6.826-14.196-8.992
		C232.607,162.038,218.51,159.453,203.97,159.168z M221.093,156.205c0.035-0.26,0.087-0.477,0.089-0.692
		c0.139-12.952,0.252-25.903,0.418-38.853c0.086-6.586,0.296-13.171,0.403-19.759c0.116-7.265,0.177-14.53,0.264-21.796
		c0.089-7.266,0.179-14.532,0.271-21.798c0.096-7.62,0.209-15.242,0.276-22.864c0.009-1.136,0.414-1.872,1.326-2.59
		c5.2-4.088,7.314-9.509,5.859-15.92c-1.964-8.649-10.612-13.593-18.878-11.424c-6.648,1.744-11.541,7.755-11.579,14.613
		c-0.029,5.293,2.179,9.598,6.398,12.813c0.695,0.53,1.151,1.022,1.141,1.972c-0.02,1.802,0.122,3.605,0.144,5.411
		c0.136,11.774,0.23,23.548,0.396,35.322c0.08,5.73,0.318,11.457,0.414,17.186c0.128,7.581,0.189,15.164,0.276,22.746
		c0.095,8.118,0.182,16.238,0.282,24.357c0.077,6.136,0.193,12.273,0.235,18.411c0.009,1.207,0.418,1.679,1.645,1.72
		c1.562,0.054,3.12,0.302,4.679,0.475C217.112,155.751,219.071,155.976,221.093,156.205z M196.097,176.617
		c-0.344-0.124-0.466-0.203-0.591-0.208c-6.538-0.264-12.99-1.161-19.341-2.72c-1.837-0.452-3.31-0.271-4.584,1.253
		c-1.588,1.896-3.494,3.555-4.895,5.571c-3.807,5.479-4.824,11.446-2.533,17.849c1.988,5.56,5.621,9.932,9.955,13.773
		c7.315,6.484,15.818,11.015,24.797,14.674c6.128,2.497,12.418,4.603,18.53,7.136c5.858,2.43,11.377,5.509,15.63,10.391
		c4.123,4.732,5.273,10.004,2.767,15.927c-2.084,4.923-5.653,8.686-9.618,12.057c-1.784,1.516-2.385,3.052-2.499,5.366
		c-0.128,2.636,0.628,4.204,2.949,5.335c0.95,0.463,1.506,0.544,2.372-0.105c5.021-3.761,9.509-8.043,13.046-13.244
		c2.975-4.375,5.136-9.104,5.656-14.445c0.696-7.154-1.666-13.299-6.302-18.656c-5.169-5.973-11.71-9.919-18.964-12.82
		c-8.491-3.396-17.001-6.746-25.441-10.268c-5.549-2.314-10.624-5.422-14.272-10.374c-2.316-3.145-3.573-6.657-2.962-10.643
		c0.629-4.122,2.822-7.344,5.878-10.054C188.656,179.766,192.154,178.038,196.097,176.617z M233.456,158.869
		c1.789,0.509,3.303,0.906,4.797,1.367c6.223,1.921,12.25,4.305,17.82,7.723c0.774,0.475,1.441,0.586,2.266,0.354
		c10.582-2.981,20.584-7.217,29.51-13.736c4.403-3.216,8.318-6.93,11.079-11.716c3.532-6.125,2.346-11.627-3.407-15.684
		c-3.227-2.274-6.936-3.419-10.69-4.418c-6.879-1.828-13.991-1.915-21.008-2.679c-4.063-0.442-8.173-0.432-12.255-0.728
		c-4.933-0.361-9.285,0.797-12.815,4.445c-2.34,2.416-4.521,4.911-5.366,8.297c-0.295,1.18,0.026,1.982,1.06,2.628
		c3.056,1.918,6.469,2.613,9.964,3.167c4.048,0.643,7.735-0.098,11.328-2.064c2.675-1.464,5.45-2.973,8.37-3.717
		c6.548-1.668,13.281-1.932,19.993-1.101c4.598,0.569,6.895,4.648,5.286,9.013c-0.785,2.13-2.447,3.572-4.186,4.855
		c-5.19,3.828-11.096,6.198-17.167,8.2c-7.168,2.363-14.538,3.8-22.017,4.673C241.948,158.223,237.854,158.484,233.456,158.869z
		 M223.049,325.797c0.069,1.652-0.508,3.528,1.425,4.561c0.362,0.195,1.059,0.269,1.33,0.055c4.221-3.323,7.888-7.174,10.458-11.924
		c3.828-7.071,3.814-14.132-0.553-20.997c-3.528-5.543-8.608-9.414-14.161-12.716c-6.093-3.625-12.027-7.472-17.36-12.174
		c-4.021-3.545-7.709-7.381-9.761-12.447c-1.814-4.482-1.613-8.903,0.917-13.099c2.095-3.474,5.052-6.131,8.476-8.209
		c1.516-0.921,2.153-1.941,1.962-3.688c-0.092-0.831-0.275-1.286-1.092-1.585c-2.708-0.994-5.373-2.107-8.089-3.072
		c-0.467-0.167-1.232-0.016-1.649,0.283c-2.911,2.09-5.452,4.571-7.619,7.439c-3.375,4.463-5.247,9.481-5.142,15.066
		c0.075,4.039,1.187,7.916,3.015,11.548c3.931,7.811,9.834,13.873,16.967,18.759c4.273,2.926,8.809,5.467,13.082,8.39
		c4.786,3.275,9.153,7.062,12.357,11.984c2.331,3.581,3.251,7.378,0.926,11.324c-0.838,1.422-1.82,2.876-3.073,3.911
		c-1.994,1.646-2.66,3.613-2.419,6.051C223.064,325.437,223.047,325.618,223.049,325.797z M222.475,376.958
		c0.241-0.299,0.33-0.391,0.397-0.497c4.051-6.408,6.411-13.378,6.966-20.952c0.632-8.601-1.86-16.068-8.269-21.963
		c-2.848-2.621-5.999-4.911-9.022-7.336c-3.59-2.881-7.213-5.724-10.026-9.431c-2.637-3.473-3.048-7.219-0.977-11.019
		c1.151-2.113,2.807-3.949,4.169-5.955c0.4-0.592,0.73-1.32,0.811-2.02c0.124-1.065-0.128-2.179,0.014-3.24
		c0.353-2.654-0.925-4.153-3.213-5.152c-0.666-0.29-1.123-0.43-1.659,0.138c-2.166,2.287-4.604,4.367-6.47,6.875
		c-4.265,5.73-5.408,12.115-2.805,18.906c1.962,5.115,5.239,9.376,9.376,12.907c4.01,3.423,8.153,6.694,12.317,9.929
		c7.013,5.449,9.395,12.772,8.993,21.34C222.807,365.234,222.676,370.985,222.475,376.958z M220.227,218.333
		c0.06-0.663,0.134-1.14,0.139-1.616c0.017-1.939-0.014-3.88,0.017-5.819c0.167-10.415,0.337-20.83,0.536-31.245
		c0.017-0.838-0.237-1.289-1.083-1.339c-3.191-0.188-6.385-0.362-9.575-0.57c-0.761-0.049-1.069,0.229-1.063,0.991
		c0.044,4.643,0.043,9.285,0.105,13.926c0.081,6.129,0.273,12.259,0.286,18.391c0.006,3.023-0.135,3.04,2.694,4.175
		C214.864,216.262,217.463,217.253,220.227,218.333z M210.163,235.386c-0.105,0.568-0.17,0.742-0.167,0.915
		c0.133,10.467,0.22,20.935,0.462,31.4c0.038,1.629-0.783,3.541,0.533,4.897c1.208,1.244,2.762,2.162,4.206,3.165
		c1.347,0.937,2.746,1.795,4.354,2.836c0-0.812-0.003-1.296,0-1.782c0.042-6.635,0.043-13.271,0.139-19.904
		c0.076-5.231,0.287-10.46,0.385-15.692c0.009-0.501-0.214-1.292-0.566-1.466C216.493,238.266,213.421,236.889,210.163,235.386z
		 M220.486,390.489c-1.214-1.79-2.456-3.562-3.637-5.369c-3.964-6.078-7.255-12.474-8.906-19.593
		c-0.858-3.698-1.06-7.443-0.91-11.267c0.202-5.089-0.05-10.195-0.076-15.296c-0.005-1.057-0.527-1.64-1.463-2.059
		c-2.857,3.732-4.737,7.874-5.142,12.501c-0.406,4.63-0.04,9.242,1.144,13.799C204.467,374.662,211.226,383.456,220.486,390.489z
		 M211.189,294.24c-0.137,0.079-0.276,0.16-0.414,0.241c0,1.068-0.009,2.14,0.001,3.208c0.067,6.939,0.121,13.879,0.247,20.815
		c0.011,0.571,0.403,1.289,0.848,1.674c2.013,1.731,4.104,3.372,6.179,5.03c0.208,0.168,0.495,0.235,0.823,0.382
		c0-1.598-0.029-3.033,0.004-4.469c0.128-5.493,0.115-10.997,0.481-16.477c0.202-3.026-0.629-5.149-3.228-6.74
		C214.39,296.837,212.831,295.47,211.189,294.24z M218.182,378.751c0.037-0.391,0.104-0.781,0.108-1.173
		c0.085-7.354,0.248-14.712,0.189-22.066c-0.015-2.067-0.458-4.206-1.101-6.182c-1.081-3.323-3.167-5.989-5.953-7.798
		c0,4.984-0.113,9.994,0.041,14.993c0.093,3.042,0.365,6.121,0.97,9.096C213.396,370.334,215.561,374.61,218.182,378.751z
		 M211.936,389.081c0,2.279-0.2,4.414,0.05,6.497c0.309,2.565,0.913,5.104,1.567,7.607c0.185,0.712,0.985,1.262,1.502,1.885
		c0.479-0.62,1.235-1.176,1.391-1.866c0.628-2.795,1.083-5.629,1.562-8.454c0.041-0.247-0.133-0.629-0.334-0.8
		C215.813,392.336,213.923,390.757,211.936,389.081z"/>
	<path fill-rule="evenodd" clip-rule="evenodd" fill="rgb(0,47,91)" d="M331.604,78.114c-0.296,1.74-0.458,3.302-0.838,4.811
		c-0.932,3.687-3.781,5.752-7.603,5.92c-4.029,0.176-7.89-0.556-11.667-1.82c-1.125-0.375-1.594-0.068-2.019,0.95
		c-1.142,2.743-2.595,5.27-5.34,6.762c-3.297,1.793-6.772,1.668-10.259,0.845c-2.451-0.577-4.866-1.323-7.271-2.072
		c-1.262-0.394-2.031-0.252-2.634,1.108c-1.992,4.487-6.304,5.979-10.759,5.21c-4.303-0.741-8.161-2.498-11.892-4.647
		c-1.919-1.105-2.072-1.044-3.728,0.454c-1.637,1.481-3.297,2.943-5.015,4.328c-1.448,1.167-3.181,1.611-5.033,1.704
		c-5.239,0.26-10.146-1.3-15.08-2.708c-1.73-0.493-3.43-1.1-5.152-1.628c-0.713-0.217-1.139-0.515-1.128-1.395
		c0.07-5.462,0.041-10.925,0.128-16.387c0.084-5.407,0.268-10.813,0.403-16.115c2.014,0,3.984,0.148,5.924-0.031
		c4.847-0.446,7.959-3.349,9.937-7.565c1.988-4.245,3.723-8.613,5.763-12.832c2.677-5.539,6.128-10.445,11.309-14.074
		c4.563-3.196,9.239-3.271,14.272-1.636c6.68,2.17,12.863,5.426,19.135,8.507c9.992,4.908,19.951,9.896,30.068,14.531
		c7.384,3.382,15.18,5.658,23.203,7.06c9.741,1.705,19.279,1.104,28.583-2.434c2.625-0.997,5.358-1.542,8.196-1.39
		c2.334,0.127,3.087,1.278,2.24,3.532c-1.277,3.392-3.585,6.03-6.275,8.356c-4.801,4.146-10.25,7.023-16.532,8.147
		c-1.588,0.286-3.223,0.339-4.84,0.426c-0.8,0.042-1.1,0.313-1.076,1.144c0.027,0.986,0.271,2.396-0.258,2.875
		c-1.01,0.919-2.442,1.606-3.8,1.869c-6.316,1.217-12.561,0.643-18.707-1.171C333.173,78.546,332.482,78.362,331.604,78.114z"/>
	<path fill-rule="evenodd" clip-rule="evenodd" fill="rgb(0,47,91)" d="M203.551,63.233c0,3.013-0.022,5.844,0.005,8.677
		c0.05,5.23,0.13,10.461,0.194,15.691c0.035,2.844,0.095,5.687,0.05,8.529c-0.006,0.387-0.482,1.01-0.855,1.113
		c-5.373,1.488-10.714,3.158-16.167,4.261c-4.254,0.861-8.366,0.075-11.559-3.366c-0.918-0.989-2.071-1.764-2.966-2.77
		c-1.035-1.167-2.022-0.929-3.224-0.345c-2.834,1.373-5.647,2.832-8.593,3.921c-2.429,0.9-5,1.43-7.686,0.903
		c-3.14-0.614-5.305-2.366-6.619-5.218c-0.492-1.067-1.011-1.509-2.343-1.148c-3.642,0.983-7.306,2.06-11.032,2.529
		c-5.134,0.646-8.675-1.657-10.826-5.337c-0.542-0.932-0.985-1.927-1.405-2.921c-0.334-0.792-0.724-1.046-1.649-0.797
		c-2.559,0.689-5.134,1.507-7.751,1.747c-2.33,0.212-4.813,0.055-7.07-0.541c-3.505-0.924-4.768-3.836-5.13-7.205
		c-0.093-0.878-0.197-1.756-0.314-2.788c-2.323,0.576-4.429,1.208-6.577,1.604c-5.133,0.945-10.285,1.253-15.407-0.098
		c-0.729-0.191-1.408-0.582-2.092-0.917c-1.13-0.555-1.484-1.414-1.205-2.679c0.426-1.927,0.296-1.924-1.753-2.069
		C60.74,73.243,52.149,68.43,45.943,59.502c-0.741-1.066-1.178-2.44-1.416-3.735c-0.259-1.418,0.411-1.997,1.909-2.141
		c2.789-0.269,5.491,0.194,8.1,1.113c4.647,1.637,9.352,3.175,14.292,3.317c4.396,0.128,8.854,0.062,13.202-0.525
		c4.525-0.611,9.011-1.738,13.405-3.015c9.208-2.676,17.887-6.703,26.446-10.971c8.153-4.065,16.239-8.263,24.425-12.261
		c4.123-2.014,8.377-3.732,12.901-4.765c4.516-1.031,8.319,0.304,11.913,2.906c4.662,3.376,7.896,7.881,10.331,12.994
		c2.229,4.677,4.119,9.526,6.507,14.117c2.893,5.559,7.22,7.599,13.417,6.89C201.952,63.359,202.534,63.323,203.551,63.233z"/>
	<path fill-rule="evenodd" clip-rule="evenodd" fill="rgb(0,47,91)" d="M203.97,159.168c14.54,0.284,28.637,2.87,42.115,8.433
		c5.246,2.166,10.172,4.896,14.196,8.992c3.839,3.908,6.451,8.506,6.861,14.04c0.316,4.244-0.983,8.198-3.083,11.878
		c-2.544,4.458-6.034,8.093-9.986,11.294c-5.432,4.396-11.47,7.812-17.754,10.824c-1.026,0.492-1.82,0.471-2.861-0.122
		c-2.505-1.424-5.095-2.709-7.718-3.9c-1.055-0.479-1.177-1.146-1.189-2.119c-0.014-0.987,0.316-1.517,1.248-1.946
		c4.826-2.222,9.735-4.308,14.376-6.873c3.943-2.18,7.201-5.281,8.97-9.621c1.896-4.648,0.842-8.853-2.043-12.707
		c-3.616-4.83-8.677-7.654-14.138-9.855c-6.305-2.543-12.889-3.587-19.667-3.793c-3.952-0.119-7.894-0.594-11.838-0.935
		c-3.142-0.272-6.293-0.474-9.413-0.904c-5.301-0.733-10.632-1.382-15.856-2.5c-9.975-2.135-19.433-5.747-28.212-10.996
		c-5.686-3.401-10.956-7.327-14.952-12.719c-1.896-2.556-3.409-5.287-3.739-8.553c-0.411-4.082,1.446-7.037,4.549-9.37
		c3.836-2.885,8.288-4.415,12.924-5.218c4.953-0.858,9.975-1.31,14.972-1.909c3.756-0.449,7.515-0.88,11.28-1.252
		c1.066-0.107,2.153,0.021,3.233,0.038c1.888,0.026,3.775,0.066,5.663,0.07c4.716,0.011,8.01,2.656,10.939,5.928
		c1.721,1.923,3.196,4.013,3.86,6.581c0.328,1.272,0.003,2.15-1.147,2.845c-3.205,1.937-6.753,2.653-10.392,3.172
		c-3.874,0.553-7.402-0.263-10.786-2.166c-3.299-1.854-6.634-3.68-10.459-4.267c-1.336-0.203-2.673-0.486-4.017-0.545
		c-3.644-0.165-7.292-0.281-10.94-0.304c-1.245-0.008-2.508,0.244-3.735,0.505c-5.568,1.185-6.08,7.268-3.61,10.461
		c2.445,3.161,5.772,5.139,9.264,6.87c6.527,3.241,13.35,5.667,20.52,7.005c5.347,0.998,10.705,2.022,16.104,2.621
		C192.965,158.755,198.481,158.849,203.97,159.168z"/>
	<path fill-rule="evenodd" clip-rule="evenodd" fill="rgb(0,47,91)" d="M221.093,156.205c-2.022-0.229-3.981-0.454-5.94-0.67
		c-1.559-0.173-3.117-0.421-4.679-0.475c-1.226-0.041-1.635-0.513-1.645-1.72c-0.042-6.137-0.159-12.274-0.235-18.411
		c-0.101-8.12-0.188-16.239-0.282-24.357c-0.087-7.582-0.148-15.166-0.276-22.746c-0.096-5.729-0.334-11.456-0.414-17.186
		c-0.165-11.774-0.259-23.548-0.396-35.322c-0.021-1.805-0.163-3.608-0.144-5.411c0.011-0.95-0.446-1.441-1.141-1.972
		c-4.219-3.216-6.428-7.521-6.398-12.813c0.038-6.858,4.931-12.869,11.579-14.613c8.266-2.168,16.914,2.775,18.878,11.424
		c1.455,6.411-0.66,11.832-5.859,15.92c-0.912,0.718-1.316,1.454-1.326,2.59c-0.067,7.622-0.18,15.244-0.276,22.864
		c-0.092,7.266-0.182,14.532-0.271,21.798c-0.087,7.266-0.148,14.532-0.264,21.796c-0.107,6.588-0.317,13.173-0.403,19.759
		c-0.166,12.95-0.279,25.901-0.418,38.853C221.179,155.728,221.128,155.945,221.093,156.205z"/>
	<path fill-rule="evenodd" clip-rule="evenodd" fill="rgb(0,47,91)" d="M196.097,176.617c-3.943,1.42-7.441,3.149-10.422,5.794
		c-3.056,2.71-5.249,5.933-5.878,10.054c-0.611,3.986,0.646,7.498,2.962,10.643c3.648,4.952,8.723,8.06,14.272,10.374
		c8.44,3.521,16.951,6.871,25.441,10.268c7.254,2.901,13.794,6.848,18.964,12.82c4.636,5.357,6.999,11.502,6.302,18.656
		c-0.521,5.341-2.682,10.07-5.656,14.445c-3.537,5.201-8.025,9.483-13.046,13.244c-0.866,0.649-1.421,0.568-2.372,0.105
		c-2.321-1.131-3.077-2.699-2.949-5.335c0.113-2.314,0.715-3.851,2.499-5.366c3.964-3.371,7.533-7.134,9.618-12.057
		c2.506-5.923,1.356-11.194-2.767-15.927c-4.253-4.882-9.772-7.961-15.63-10.391c-6.112-2.533-12.402-4.639-18.53-7.136
		c-8.979-3.659-17.482-8.189-24.797-14.674c-4.334-3.841-7.967-8.213-9.955-13.773c-2.291-6.403-1.274-12.37,2.533-17.849
		c1.4-2.016,3.306-3.675,4.895-5.571c1.275-1.524,2.747-1.706,4.584-1.253c6.351,1.559,12.803,2.456,19.341,2.72
		C195.631,176.414,195.753,176.494,196.097,176.617z"/>
	<path fill-rule="evenodd" clip-rule="evenodd" fill="rgb(0,47,91)" d="M233.456,158.869c4.398-0.385,8.492-0.646,12.561-1.121
		c7.479-0.874,14.848-2.311,22.017-4.673c6.071-2.002,11.977-4.372,17.167-8.2c1.739-1.283,3.401-2.725,4.186-4.855
		c1.609-4.364-0.688-8.443-5.286-9.013c-6.711-0.831-13.444-0.567-19.993,1.101c-2.92,0.744-5.695,2.252-8.37,3.717
		c-3.593,1.967-7.28,2.708-11.328,2.064c-3.496-0.554-6.909-1.249-9.964-3.167c-1.034-0.646-1.354-1.448-1.06-2.628
		c0.846-3.386,3.026-5.881,5.366-8.297c3.53-3.648,7.883-4.806,12.815-4.445c4.082,0.296,8.191,0.286,12.255,0.728
		c7.017,0.764,14.129,0.851,21.008,2.679c3.754,0.999,7.463,2.144,10.69,4.418c5.752,4.056,6.939,9.558,3.407,15.684
		c-2.761,4.786-6.676,8.5-11.079,11.716c-8.926,6.519-18.928,10.755-29.51,13.736c-0.825,0.232-1.492,0.121-2.266-0.354
		c-5.569-3.417-11.597-5.801-17.82-7.723C236.759,159.775,235.244,159.378,233.456,158.869z"/>
	<path fill-rule="evenodd" clip-rule="evenodd" fill="rgb(0,47,91)" d="M223.047,325.797c0-0.18,0.017-0.36-0.001-0.54
		c-0.241-2.438,0.425-4.404,2.419-6.051c1.252-1.035,2.234-2.489,3.073-3.911c2.326-3.946,1.405-7.743-0.926-11.324
		c-3.204-4.923-7.571-8.709-12.357-11.984c-4.273-2.923-8.809-5.464-13.082-8.39c-7.133-4.886-13.037-10.948-16.967-18.759
		c-1.828-3.632-2.94-7.509-3.015-11.548c-0.105-5.585,1.767-10.604,5.142-15.066c2.167-2.868,4.708-5.35,7.619-7.439
		c0.417-0.299,1.182-0.45,1.649-0.283c2.717,0.965,5.381,2.078,8.089,3.072c0.817,0.299,1,0.754,1.092,1.585
		c0.191,1.747-0.446,2.768-1.962,3.688c-3.424,2.078-6.38,4.735-8.476,8.209c-2.53,4.195-2.732,8.616-0.917,13.099
		c2.052,5.066,5.74,8.902,9.761,12.447c5.333,4.702,11.267,8.549,17.36,12.174c5.553,3.302,10.633,7.173,14.161,12.716
		c4.367,6.865,4.381,13.926,0.553,20.997c-2.57,4.75-6.237,8.601-10.458,11.924c-0.271,0.214-0.968,0.141-1.33-0.055
		C222.54,329.326,223.117,327.45,223.047,325.797z"/>
	<path fill-rule="evenodd" clip-rule="evenodd" fill="rgb(0,47,91)" d="M222.475,376.958c0.201-5.974,0.333-11.725,0.603-17.47
		c0.401-8.567-1.98-15.891-8.993-21.34c-4.165-3.234-8.308-6.506-12.317-9.929c-4.137-3.531-7.415-7.792-9.376-12.907
		c-2.603-6.791-1.46-13.176,2.805-18.906c1.866-2.508,4.305-4.588,6.47-6.875c0.536-0.567,0.993-0.428,1.659-0.138
		c2.288,0.999,3.565,2.498,3.213,5.152c-0.142,1.062,0.11,2.175-0.014,3.24c-0.081,0.699-0.411,1.428-0.811,2.02
		c-1.362,2.006-3.018,3.842-4.169,5.955c-2.071,3.8-1.66,7.546,0.977,11.019c2.813,3.707,6.436,6.55,10.026,9.431
		c3.023,2.425,6.174,4.715,9.022,7.336c6.409,5.895,8.901,13.362,8.269,21.963c-0.556,7.574-2.915,14.544-6.966,20.952
		C222.804,376.568,222.716,376.66,222.475,376.958z"/>
	<path fill-rule="evenodd" clip-rule="evenodd" fill="rgb(0,47,91)" d="M220.227,218.333c-2.764-1.08-5.363-2.071-7.944-3.106
		c-2.829-1.135-2.688-1.151-2.694-4.175c-0.012-6.132-0.205-12.262-0.286-18.391c-0.062-4.641-0.061-9.283-0.105-13.926
		c-0.006-0.762,0.302-1.04,1.063-0.991c3.19,0.208,6.383,0.382,9.575,0.57c0.846,0.05,1.1,0.501,1.083,1.339
		c-0.199,10.415-0.37,20.83-0.536,31.245c-0.031,1.939,0,3.88-0.017,5.819C220.361,217.194,220.286,217.67,220.227,218.333z"/>
	<path fill-rule="evenodd" clip-rule="evenodd" fill="rgb(0,47,91)" d="M210.163,235.386c3.257,1.503,6.33,2.88,9.346,4.369
		c0.353,0.174,0.576,0.965,0.566,1.466c-0.098,5.232-0.309,10.461-0.385,15.692c-0.096,6.634-0.098,13.27-0.139,19.904
		c-0.003,0.486,0,0.97,0,1.782c-1.608-1.041-3.007-1.899-4.354-2.836c-1.443-1.003-2.998-1.921-4.206-3.165
		c-1.316-1.356-0.495-3.269-0.533-4.897c-0.243-10.466-0.33-20.934-0.462-31.4C209.993,236.128,210.058,235.955,210.163,235.386z"/>
	<path fill-rule="evenodd" clip-rule="evenodd" fill="rgb(0,47,91)" d="M220.486,390.489c-9.26-7.033-16.019-15.827-18.991-27.283
		c-1.184-4.557-1.55-9.169-1.144-13.799c0.405-4.627,2.285-8.769,5.142-12.501c0.936,0.419,1.458,1.002,1.463,2.059
		c0.026,5.101,0.278,10.207,0.076,15.296c-0.149,3.823,0.052,7.568,0.91,11.267c1.651,7.119,4.942,13.515,8.906,19.593
		C218.031,386.927,219.272,388.699,220.486,390.489z"/>
	<path fill-rule="evenodd" clip-rule="evenodd" fill="rgb(0,47,91)" d="M211.189,294.24c1.642,1.23,3.201,2.598,4.942,3.665
		c2.599,1.591,3.43,3.714,3.228,6.74c-0.366,5.479-0.353,10.983-0.481,16.477c-0.034,1.436-0.004,2.871-0.004,4.469
		c-0.329-0.146-0.616-0.214-0.823-0.382c-2.075-1.658-4.166-3.299-6.179-5.03c-0.444-0.385-0.837-1.103-0.848-1.674
		c-0.126-6.937-0.18-13.876-0.247-20.815c-0.011-1.068-0.001-2.14-0.001-3.208C210.913,294.4,211.052,294.319,211.189,294.24z"/>
	<path fill-rule="evenodd" clip-rule="evenodd" fill="rgb(0,47,91)" d="M218.182,378.751c-2.621-4.142-4.786-8.417-5.745-13.13
		c-0.604-2.975-0.876-6.054-0.97-9.096c-0.154-4.999-0.041-10.009-0.041-14.993c2.786,1.809,4.872,4.475,5.953,7.798
		c0.643,1.976,1.086,4.114,1.101,6.182c0.058,7.354-0.104,14.712-0.189,22.066C218.286,377.97,218.219,378.361,218.182,378.751z"/>
	<path fill-rule="evenodd" clip-rule="evenodd" fill="rgb(0,47,91)" d="M211.936,389.081c1.986,1.677,3.877,3.256,5.739,4.869
		c0.202,0.171,0.375,0.553,0.334,0.8c-0.479,2.825-0.935,5.659-1.562,8.454c-0.156,0.69-0.912,1.246-1.391,1.866
		c-0.518-0.623-1.318-1.173-1.502-1.885c-0.654-2.504-1.258-5.042-1.567-7.607C211.736,393.495,211.936,391.36,211.936,389.081z"/>
</g>
</svg>
