<?xml version="1.0" encoding="utf-8"?>
<!-- Generator: Adobe Illustrator 16.0.0, SVG Export Plug-In . SVG Version: 6.00 Build 0)  -->
<!DOCTYPE svg PUBLIC "-//W3C//DTD SVG 1.1//EN" "http://www.w3.org/Graphics/SVG/1.1/DTD/svg11.dtd">
<svg version="1.1" id="Layer_1" xmlns="http://www.w3.org/2000/svg" xmlns:xlink="http://www.w3.org/1999/xlink" x="0px" y="0px"
	 width="6vw" height="6vw" viewBox="0 0 610 610" enable-background="new 0 0 610 610" xml:space="preserve">
<path fill="#002F5B" d="M285.6,217.414c39.375,0,71.298-31.918,71.298-71.293S324.975,74.824,285.6,74.824
	s-71.293,31.922-71.293,71.297C214.35,185.477,246.241,217.371,285.6,217.414z M285.6,97.299c26.963,0,48.822,21.859,48.822,48.822
	c0,26.962-21.859,48.817-48.822,48.817c-26.962,0-48.817-21.855-48.817-48.817C236.81,119.17,258.646,97.327,285.6,97.299z"/>
<path fill="#002F5B" d="M472.104,184.825h-30.342c-39.758,0-75.707,23.993-91.822,59.794c-14.979-8.538-31.926-13.025-49.165-13.009
	h-30.342c-17.156-0.016-34.025,4.429-48.946,12.884c-16.1-36.121-51.865-59.466-91.412-59.665H99.737
	c-55.072,0.059-99.695,44.682-99.758,99.75v95.704c0,6.212,5.033,11.237,11.237,11.237h159.467v35.547
	c0,6.212,5.025,11.238,11.237,11.238h207.363c6.204,0,11.238-5.026,11.238-11.238v-35.547h160.095
	c6.204,0,11.237-5.033,11.237-11.237v-95.704C571.792,229.51,527.173,184.887,472.104,184.825z M472.104,207.3
	c0.562,0,1.112,0.035,1.67,0.043l-13.56,58.17c-0.526,2.603-2.649,4.589-5.287,4.936c-0.152,0.008-0.348,0.008-0.452,0.012
	c-2.833-0.156-5.19-2.208-5.736-4.987l-13.485-57.894c2.154-0.184,4.323-0.277,6.513-0.281H472.104z M300.775,254.085
	c2.057,0,4.09,0.105,6.104,0.261l-18.465,60.168l-18.542-60.414c0.188,0,0.367-0.016,0.554-0.016H300.775z M130.071,207.3
	c0.766,0,1.522,0.027,2.283,0.047l-18.749,68.144l-18.714-68.027c1.6-0.098,3.215-0.164,4.838-0.164H130.071z M22.455,284.579
	c0.039-32.305,20.134-61.183,50.405-72.452l29.507,107.246v49.672H22.455V284.579z M124.843,369.045v-49.672l29.718-108.026
	c22.28,7.562,39.991,24.738,48.229,46.781c-20.474,18.847-32.121,45.403-32.113,73.233v37.685H124.843z M193.159,331.364
	c0.039-33.807,22.011-63.677,54.276-73.783l29.741,96.922v61.327h-84.018V331.364z M378.047,415.83h-78.395v-61.327l29.19-95.115
	c29.644,11.589,49.165,40.144,49.204,71.973V415.83z M368.577,258.284c7.886-20.786,24.141-37.307,44.803-45.533l13.478,57.824
	c2.005,8.877,8.076,16.287,16.388,19.998v78.48h-42.723V331.36C400.534,303.609,388.949,277.122,368.577,258.284z M549.379,369.041
	H465.72v-78.504c8.265-3.73,14.32-11.093,16.381-19.923l13.875-59.525c31.817,10.375,53.359,40.027,53.402,73.49V369.041z"/>
<path fill="#002F5B" d="M456.302,171.265c32.265,0.008,60.516-21.656,68.87-52.829c8.35-31.166-5.284-64.055-33.229-80.182V27.461
	c0-17.243-13.974-31.216-31.216-31.216c-17.243,0-31.216,13.973-31.216,31.216v6.45c-31.606,12.818-49.708,46.23-43.176,79.706
	c6.531,33.479,35.859,57.644,69.967,57.644V171.265z M456.302,148.79c-20.369-0.023-38.583-12.674-45.735-31.743
	c9.014-1.526,17.816-4.113,26.232-7.699c10.435-4.452,20.061-10.617,28.47-18.246c7.96,8.92,20.392,19.553,37.311,24.68
	C495.969,135.679,477.262,149.02,456.302,148.79z M504.569,92.628c-11.152-4.627-19.386-12.65-24.431-18.741
	c2.56-3.785,4.857-7.737,6.883-11.831C496.476,69.705,502.735,80.61,504.569,92.628z M451.985,27.461c0-4.827,3.91-8.74,8.741-8.74
	c4.83,0,8.74,3.914,8.74,8.74v2.443c-4.339-0.819-8.748-1.233-13.165-1.237c-1.448,0-2.888,0.059-4.316,0.141V27.461z
	 M456.302,51.143c3.523,0.004,7.039,0.386,10.477,1.147c-15.284,30.564-43.355,39.75-59.025,42.504
	C410.426,69.989,431.347,51.178,456.302,51.143z"/>
<path fill="#002F5B" d="M114.9,171.265c39.227,0,70.548-31.228,71.298-71.086c0-0.07,0-0.144,0-0.214
	c0-39.375-31.919-71.293-71.298-71.293c-39.375,0-71.297,31.918-71.297,71.293C43.603,139.343,75.525,171.265,114.9,171.265z
	 M114.9,51.146c26.912,0.035,48.732,21.808,48.822,48.716c-0.57,27.447-22,48.931-48.822,48.931
	c-26.962,0-48.821-21.859-48.821-48.822S87.938,51.146,114.9,51.146z"/>
<path fill="#002F5B" d="M516.915,268.448h-21.228c-6.204,0-11.237,5.034-11.237,11.238s5.033,11.238,11.237,11.238h21.228
	c6.204,0,11.237-5.034,11.237-11.238S523.119,268.448,516.915,268.448z"/>
<path fill="#002F5B" d="M329.619,318.394c-6.204,0-11.237,5.033-11.237,11.237s5.033,11.238,11.237,11.238h21.227
	c6.204,0,11.238-5.034,11.238-11.238s-5.034-11.237-11.238-11.237H329.619z"/>
<path fill="#002F5B" d="M179.783,275.94c0-6.204-5.034-11.238-11.238-11.238h-16.231c-6.205,0-11.238,5.034-11.238,11.238
	s5.033,11.238,11.238,11.238h16.231C174.749,287.178,179.783,282.144,179.783,275.94z"/>
</svg>
