<?xml version="1.0" encoding="utf-8"?>
<!-- Generator: Adobe Illustrator 24.0.3, SVG Export Plug-In . SVG Version: 6.00 Build 0)  -->
<svg version="1.1" id="Capa_1" xmlns="http://www.w3.org/2000/svg" xmlns:xlink="http://www.w3.org/1999/xlink" x="0px" y="0px"
	 viewBox="0 0 512 512" style="enable-background:new 0 0 512 512;" xml:space="preserve">
<style type="text/css">
	.st0{fill:#F2F9FF;}
	.st1{fill:#E2F4FF;}
	.st2{fill:#FFD064;}
	.st3{fill:#FFC250;}
	.st4{fill:#DF75A5;}
	.st5{fill:#DD5790;}
	.st6{fill:#FFF0AF;}
	.st7{fill:#FFE07D;}
	.st8{fill:#56431E;}
	.st9{fill:#706046;}
</style>
<g>
	<g>
		<path class="st0" d="M968.3,504.5H644.1c-14.9,0-26.9-12-26.9-26.9V73.3h378v404.3C995.2,492.5,983.1,504.5,968.3,504.5z"/>
		<path class="st1" d="M931.7,73.3v404.3c0,14.9-12,26.9-26.9,26.9h63.5c14.9,0,26.9-12,26.9-26.9V73.3L931.7,73.3z"/>
		<path class="st2" d="M617.2,256v221.6c0,14.9,12,26.9,26.9,26.9h324.2c14.9,0,26.9-12,26.9-26.9V256H617.2z"/>
		<path class="st3" d="M995.2,477.6V256h-63.5v221.6c0,14.9-12,26.9-26.9,26.9h63.5C983.1,504.5,995.2,492.5,995.2,477.6
			L995.2,477.6z"/>
		<g>
			<path class="st4" d="M1008.2,121.5H604.2c-13.4,0-24.3-10.9-24.3-24.3V31.8c0-13.4,10.9-24.3,24.3-24.3h404.1
				c13.4,0,24.3,10.9,24.3,24.3v65.5C1032.5,110.7,1021.6,121.5,1008.2,121.5L1008.2,121.5z"/>
		</g>
		<path class="st5" d="M1008.2,7.5h-38.4v89.8c0,13.4-10.9,24.3-24.3,24.3h62.7c13.4,0,24.3-10.9,24.3-24.3V31.8
			C1032.5,18.4,1021.6,7.5,1008.2,7.5z"/>
		<path class="st6" d="M995.2,201.2H758.7c-10.4,0-18.8,8.4-18.8,18.8v169.6c0,10.4,8.4,18.8,18.8,18.8h236.5L995.2,201.2
			L995.2,201.2z"/>
		<path class="st7" d="M931.7,201.2h63.5v207.2h-63.5V201.2z"/>
	</g>
	<g>
		<path d="M635.5,34.8c-4.1,0-7.5,3.4-7.5,7.5v44.3c0,4.1,3.4,7.5,7.5,7.5c4.1,0,7.5-3.4,7.5-7.5V42.3
			C643,38.2,639.7,34.8,635.5,34.8z"/>
		<path d="M692.4,34.8c-4.1,0-7.5,3.4-7.5,7.5v44.3c0,4.1,3.4,7.5,7.5,7.5c4.1,0,7.5-3.4,7.5-7.5V42.3
			C699.9,38.2,696.6,34.8,692.4,34.8z"/>
		<path d="M749.3,34.8c-4.1,0-7.5,3.4-7.5,7.5v44.3c0,4.1,3.4,7.5,7.5,7.5c4.1,0,7.5-3.4,7.5-7.5V42.3
			C756.8,38.2,753.4,34.8,749.3,34.8z"/>
		<path d="M806.2,34.8c-4.1,0-7.5,3.4-7.5,7.5v44.3c0,4.1,3.4,7.5,7.5,7.5c4.1,0,7.5-3.4,7.5-7.5V42.3
			C813.7,38.2,810.3,34.8,806.2,34.8z"/>
		<path d="M863.1,34.8c-4.1,0-7.5,3.4-7.5,7.5v44.3c0,4.1,3.4,7.5,7.5,7.5s7.5-3.4,7.5-7.5V42.3C870.6,38.2,867.2,34.8,863.1,34.8z"
			/>
		<path d="M920,34.8c-4.1,0-7.5,3.4-7.5,7.5v44.3c0,4.1,3.4,7.5,7.5,7.5s7.5-3.4,7.5-7.5V42.3C927.5,38.2,924.1,34.8,920,34.8z"/>
		<path d="M976.8,34.8c-4.1,0-7.5,3.4-7.5,7.5v44.3c0,4.1,3.4,7.5,7.5,7.5s7.5-3.4,7.5-7.5V42.3C984.3,38.2,981,34.8,976.8,34.8z"/>
		<path d="M1008.2,0H604.2c-17.5,0-31.8,14.2-31.8,31.8v65.5c0,17.5,14.2,31.8,31.8,31.8h5.5v37c0,4.1,3.4,7.5,7.5,7.5
			c4.1,0,7.5-3.4,7.5-7.5v-37h363v64.7h-229c-14.5,0-26.3,11.8-26.3,26.3v28.5H624.7v-47.4c0-4.1-3.4-7.5-7.5-7.5
			c-4.1,0-7.5,3.4-7.5,7.5v276.5c0,19,15.4,34.4,34.4,34.4h324.2c19,0,34.4-15.4,34.4-34.4V129h5.5c17.5,0,31.8-14.2,31.8-31.8V31.8
			C1040,14.2,1025.7,0,1008.2,0L1008.2,0z M987.7,400.9H819.3c-4.1,0-7.5,3.4-7.5,7.5s3.4,7.5,7.5,7.5h168.4v61.7
			c0,10.7-8.7,19.4-19.4,19.4H644.1c-10.7,0-19.4-8.7-19.4-19.4V263.5h107.7v126.1c0,14.5,11.8,26.3,26.3,26.3h25.5
			c4.1,0,7.5-3.4,7.5-7.5s-3.4-7.5-7.5-7.5h-25.5c-6.2,0-11.3-5.1-11.3-11.3V220c0-6.2,5.1-11.3,11.3-11.3h229V400.9z M1025,97.3
			c0,9.2-7.5,16.8-16.8,16.8H604.2c-9.2,0-16.8-7.5-16.8-16.8V31.8c0-9.2,7.5-16.8,16.8-16.8h404.1c9.2,0,16.8,7.5,16.8,16.8V97.3z"
			/>
		<path d="M801.7,285h142c4.1,0,7.5-3.4,7.5-7.5s-3.4-7.5-7.5-7.5h-142c-4.1,0-7.5,3.4-7.5,7.5S797.6,285,801.7,285z"/>
		<path d="M801.7,344.5h142c4.1,0,7.5-3.4,7.5-7.5s-3.4-7.5-7.5-7.5h-142c-4.1,0-7.5,3.4-7.5,7.5S797.6,344.5,801.7,344.5z"/>
	</g>
</g>
<path class="st0" d="M418.1,504.5H93.9c-14.9,0-26.9-12-26.9-26.9V73.3h378v404.3C445,492.4,432.9,504.5,418.1,504.5z"/>
<path class="st1" d="M381.5,73.3v404.3c0,14.9-12,26.9-26.9,26.9h63.5c14.9,0,26.9-12,26.9-26.9V73.3L381.5,73.3z"/>
<path class="st8" d="M67,256v221.6c0,14.9,12,26.9,26.9,26.9h324.2c14.9,0,26.9-12,26.9-26.9V256H67z"/>
<path class="st9" d="M445,477.6V256h-63.5v221.6c0,14.9-12,26.9-26.9,26.9h63.5C432.9,504.5,445,492.4,445,477.6L445,477.6z"/>
<g>
	<path class="st4" d="M458,121.5H54c-13.4,0-24.3-10.9-24.3-24.3V31.7C29.7,18.3,40.6,7.5,54,7.5H458c13.4,0,24.3,10.9,24.3,24.3
		v65.5C482.3,110.6,471.4,121.5,458,121.5L458,121.5z"/>
</g>
<path class="st5" d="M458,7.5h-38.4v89.8c0,13.4-10.9,24.3-24.3,24.3H458c13.4,0,24.3-10.9,24.3-24.3V31.7
	C482.3,18.3,471.4,7.5,458,7.5z"/>
<path class="st6" d="M445,201.2H208.5c-10.4,0-18.8,8.4-18.8,18.8v169.6c0,10.4,8.4,18.8,18.8,18.8H445L445,201.2L445,201.2z"/>
<path class="st7" d="M381.5,201.2H445v207.2h-63.5V201.2z"/>
<g>
	<path d="M85.3,34.8c-4.1,0-7.5,3.4-7.5,7.5v44.3c0,4.1,3.4,7.5,7.5,7.5s7.5-3.4,7.5-7.5V42.3C92.8,38.2,89.5,34.8,85.3,34.8z"/>
	<path d="M142.2,34.8c-4.1,0-7.5,3.4-7.5,7.5v44.3c0,4.1,3.4,7.5,7.5,7.5s7.5-3.4,7.5-7.5V42.3C149.7,38.2,146.4,34.8,142.2,34.8z"
		/>
	<path d="M199.1,34.8c-4.1,0-7.5,3.4-7.5,7.5v44.3c0,4.1,3.4,7.5,7.5,7.5s7.5-3.4,7.5-7.5V42.3C206.6,38.2,203.3,34.8,199.1,34.8z"
		/>
	<path d="M256,34.8c-4.1,0-7.5,3.4-7.5,7.5v44.3c0,4.1,3.4,7.5,7.5,7.5c4.1,0,7.5-3.4,7.5-7.5V42.3C263.5,38.2,260.1,34.8,256,34.8z
		"/>
	<path d="M312.9,34.8c-4.1,0-7.5,3.4-7.5,7.5v44.3c0,4.1,3.4,7.5,7.5,7.5s7.5-3.4,7.5-7.5V42.3C320.4,38.2,317,34.8,312.9,34.8z"/>
	<path d="M369.8,34.8c-4.1,0-7.5,3.4-7.5,7.5v44.3c0,4.1,3.4,7.5,7.5,7.5s7.5-3.4,7.5-7.5V42.3C377.3,38.2,373.9,34.8,369.8,34.8z"
		/>
	<path d="M426.7,34.8c-4.1,0-7.5,3.4-7.5,7.5v44.3c0,4.1,3.4,7.5,7.5,7.5s7.5-3.4,7.5-7.5V42.3C434.2,38.2,430.8,34.8,426.7,34.8z"
		/>
	<path d="M458,0H54C36.5,0,22.2,14.2,22.2,31.7v65.5c0,17.5,14.2,31.8,31.8,31.8h5.5v37c0,4.1,3.4,7.5,7.5,7.5s7.5-3.4,7.5-7.5v-37
		h363v64.7h-229c-14.5,0-26.3,11.8-26.3,26.3v28.5H74.5v-47.4c0-4.1-3.4-7.5-7.5-7.5s-7.5,3.4-7.5,7.5v276.5
		c0,19,15.4,34.4,34.4,34.4h324.2c19,0,34.4-15.4,34.4-34.4V129h5.5c17.5,0,31.8-14.2,31.8-31.8V31.7C489.8,14.2,475.5,0,458,0
		L458,0z M437.5,400.9H269.1c-4.1,0-7.5,3.4-7.5,7.5s3.4,7.5,7.5,7.5h168.4v61.7c0,10.7-8.7,19.4-19.4,19.4H93.9
		c-10.7,0-19.4-8.7-19.4-19.4V263.5h107.7v126.1c0,14.5,11.8,26.3,26.3,26.3H234c4.1,0,7.5-3.4,7.5-7.5s-3.4-7.5-7.5-7.5h-25.5
		c-6.2,0-11.3-5.1-11.3-11.3V219.9c0-6.2,5.1-11.3,11.3-11.3h229L437.5,400.9z M474.8,97.2c0,9.2-7.5,16.8-16.8,16.8H54
		c-9.2,0-16.8-7.5-16.8-16.8V31.7C37.2,22.5,44.7,15,54,15H458c9.2,0,16.8,7.5,16.8,16.8V97.2z"/>
	<path d="M251.5,285h142c4.1,0,7.5-3.4,7.5-7.5s-3.4-7.5-7.5-7.5h-142c-4.1,0-7.5,3.4-7.5,7.5S247.4,285,251.5,285z"/>
	<path d="M251.5,344.5h142c4.1,0,7.5-3.4,7.5-7.5s-3.4-7.5-7.5-7.5h-142c-4.1,0-7.5,3.4-7.5,7.5S247.4,344.5,251.5,344.5z"/>
</g>
</svg>
