<?xml version="1.0" encoding="utf-8"?>
<!-- Generator: Adobe Illustrator 16.0.0, SVG Export Plug-In . SVG Version: 6.00 Build 0)  -->
<!DOCTYPE svg PUBLIC "-//W3C//DTD SVG 1.1//EN" "http://www.w3.org/Graphics/SVG/1.1/DTD/svg11.dtd">
<svg version="1.1" id="Capa_1" xmlns="http://www.w3.org/2000/svg" xmlns:xlink="http://www.w3.org/1999/xlink" x="0px" y="0px"
	 width="2vw" height="2vw" viewBox="0 0 617.951 405.351" enable-background="new 0 0 617.951 405.351"
	 xml:space="preserve">
<path fill="#6A93B3" d="M328.286,247.959c-7.762-8.078-17.121-12.399-27.039-12.399c-9.84,0-19.281,4.239-27.359,12.321
	l-25.281,25.199c-2.082-1.121-4.16-2.16-6.16-3.199c-2.879-1.441-5.602-2.801-7.922-4.242
	c-23.679-15.039-45.199-34.642-65.839-60.001c-10-12.64-16.719-23.281-21.598-34.078c6.558-6,12.64-12.242,18.558-18.242
	c2.243-2.238,4.481-4.559,6.723-6.801c16.797-16.796,16.797-38.558,0-55.359l-21.844-21.84c-2.476-2.48-5.039-5.039-7.437-7.597
	c-4.801-4.961-9.84-10.082-15.039-14.883c-7.762-7.68-17.043-11.758-26.801-11.758c-9.762,0-19.199,4.078-27.199,11.758l-0.16,0.16
	L46.685,74.44c-10.239,10.238-16.079,22.718-17.36,37.199c-1.918,23.359,4.961,45.121,10.242,59.359
	c12.957,34.96,32.321,67.359,61.2,102.083c35.039,41.84,77.199,74.879,125.359,98.16c18.398,8.719,42.961,19.039,70.398,20.797
	c1.684,0.082,3.441,0.16,5.043,0.16c18.48,0,34-6.637,46.159-19.84c0.079-0.16,0.239-0.238,0.321-0.398
	c4.16-5.039,8.957-9.602,14-14.48c3.438-3.281,6.957-6.719,10.398-10.32c7.922-8.238,12.078-17.84,12.078-27.68
	c0-9.918-4.238-19.441-12.316-27.441L328.286,247.959z M356.927,332.198"/>
<path fill="#6A93B3" d="M233.567,103.318c20.957,3.52,40,13.442,55.199,28.641c15.199,15.199,25.039,34.238,28.641,55.199
	c0.879,5.281,5.438,8.961,10.641,8.961c0.638,0,1.199-0.082,1.84-0.16c5.918-0.961,9.84-6.559,8.879-12.48
	c-4.32-25.359-16.32-48.48-34.641-66.8c-18.32-18.321-41.44-30.321-66.801-34.641c-5.918-0.957-11.438,2.961-12.48,8.801
	C223.805,96.678,227.645,102.357,233.567,103.318L233.567,103.318z M233.567,103.318"/>
<path fill="#6A93B3" d="M407.325,180.357c-7.117-41.758-26.801-79.757-57.039-110c-30.238-30.238-68.238-49.917-110-57.039
	c-5.84-1.039-11.359,2.961-12.398,8.801c-0.961,5.918,2.957,11.442,8.879,12.481c37.281,6.32,71.281,24,98.32,50.961
	c27.039,27.039,44.641,61.039,50.961,98.32c0.879,5.277,5.438,8.957,10.638,8.957c0.64,0,1.202-0.078,1.839-0.16
	C404.368,191.799,408.368,186.197,407.325,180.357L407.325,180.357z M407.325,180.357"/>
</svg>
