<?xml version="1.0" encoding="utf-8"?>
<!-- Generator: Adobe Illustrator 16.0.0, SVG Export Plug-In . SVG Version: 6.00 Build 0)  -->
<!DOCTYPE svg PUBLIC "-//W3C//DTD SVG 1.1//EN" "http://www.w3.org/Graphics/SVG/1.1/DTD/svg11.dtd">
<svg version="1.1" id="Capa_1" xmlns="http://www.w3.org/2000/svg" xmlns:xlink="http://www.w3.org/1999/xlink" x="0px" y="0px"
	 width="7vw" height="7vw" viewBox="0 0 617.951 405.351" enable-background="new 0 0 617.951 405.351"
	 xml:space="preserve">
<g>
	<g>
		<circle fill="#B1DEF9" cx="255.111" cy="168.247" r="16.944"/>
		<circle fill="#B1DEF9" cx="362.756" cy="237.02" r="16.944"/>
		<path fill="#B1DEF9" d="M502.461,225.059l-6.146-8.39c-6.645-9.136-6.811-21.512-0.249-30.814l5.98-8.472
			c9.137-12.958,4.9-30.981-9.137-38.54l-9.137-4.9c-9.967-5.316-15.448-16.446-13.538-27.659l1.744-10.216
			c2.658-15.615-9.054-30.067-24.918-30.731l-10.382-0.416c-11.296-0.499-21.098-8.14-24.254-19.021l-2.907-9.967
			c-4.401-15.283-21.18-23.173-35.798-16.861l-9.552,4.07c-10.383,4.485-22.51,1.828-30.067-6.645l-6.895-7.725
			c-10.548-11.794-29.07-11.711-39.536,0.333l-6.811,7.807c-7.476,8.555-19.519,11.379-29.984,7.06l-9.635-3.987
			c-14.701-6.063-31.313,2.16-35.549,17.442l-2.741,10.05c-2.99,10.964-12.625,18.771-23.921,19.353l-10.383,0.582
			c-15.864,0.914-27.326,15.532-24.419,31.147l1.91,10.216c2.077,11.13-3.239,22.343-13.123,27.825l-9.054,5.067
			c-13.871,7.725-17.857,25.831-8.472,38.622l6.146,8.389c6.645,9.136,6.811,21.512,0.249,30.814l-5.98,8.473
			c-9.137,12.957-4.9,30.98,9.137,38.539l9.137,4.9c9.967,5.316,15.448,16.445,13.538,27.658l-1.744,10.217
			c-2.658,15.615,9.054,30.066,24.918,30.732l10.382,0.414c11.296,0.498,21.098,8.141,24.254,19.021l2.906,9.967
			c4.402,15.283,21.181,23.174,35.799,16.861l9.552-4.07c10.383-4.484,22.509-1.828,30.067,6.645l6.894,7.725
			c10.632,11.795,29.154,11.711,39.536-0.332l6.812-7.809c7.475-8.555,19.519-11.379,29.983-7.059l9.636,3.986
			c14.701,6.062,31.313-2.16,35.549-17.443L415,357.871c2.99-10.965,12.625-18.771,23.921-19.354l10.383-0.58
			c15.864-0.914,27.326-15.533,24.419-31.148l-1.91-10.216c-2.077-11.13,3.239-22.343,13.123-27.825l9.054-5.066
			C507.859,256.041,511.846,237.933,502.461,225.059z M214.163,168.247c0-22.592,18.273-40.865,40.865-40.865
			s40.865,18.273,40.865,40.865c0,22.592-18.273,40.865-40.865,40.865S214.163,190.756,214.163,168.247z M262.919,273.648
			c-3.488,4.236-9.801,4.818-14.037,1.33l0,0c-4.236-3.489-4.817-9.801-1.329-14.037l107.229-129.157
			c3.488-4.236,9.801-4.817,14.037-1.329c4.235,3.488,4.817,9.801,1.328,14.037L262.919,273.648z M362.756,277.884
			c-22.593,0-40.865-18.273-40.865-40.865s18.272-40.865,40.865-40.865c22.592,0,40.865,18.273,40.865,40.865
			S385.347,277.884,362.756,277.884z"/>
	</g>
</g>
</svg>
