<svg width="6vw" height="6vw" viewBox="0 0 400 400" xmlns="http://www.w3.org/2000/svg">

 <g>
  <title>background</title>
  <rect fill="none" id="canvas_background" height="411.351" width="403.951" y="-1" x="-1"/>
 </g>
 <g>
  <title>Layer 1</title>
  <g id="svg_1">
   <g id="svg_2">
    <circle id="svg_3" r="16.944" cy="169.247" cx="147.111" fill="#B1DEF9"/>
    <circle id="svg_4" r="16.944" cy="238.02" cx="254.756" fill="#B1DEF9"/>
    <path id="svg_5" d="m394.461,226.059l-6.146,-8.39c-6.645,-9.136 -6.811,-21.512 -0.249,-30.814l5.98,-8.472c9.137,-12.958 4.9,-30.981 -9.137,-38.54l-9.137,-4.9c-9.967,-5.316 -15.448,-16.446 -13.538,-27.659l1.744,-10.216c2.658,-15.615 -9.054,-30.067 -24.918,-30.731l-10.382,-0.416c-11.296,-0.499 -21.098,-8.14 -24.254,-19.021l-2.907,-9.967c-4.401,-15.283 -21.18,-23.173 -35.798,-16.861l-9.552,4.07c-10.383,4.485 -22.51,1.828 -30.067,-6.645l-6.895,-7.725c-10.548,-11.794 -29.07,-11.711 -39.536,0.333l-6.811,7.807c-7.476,8.555 -19.519,11.379 -29.984,7.06l-9.635,-3.987c-14.701,-6.063 -31.313,2.16 -35.549,17.442l-2.741,10.05c-2.99,10.964 -12.625,18.771 -23.921,19.353l-10.383,0.582c-15.864,0.914 -27.326,15.532 -24.419,31.147l1.91,10.216c2.077,11.13 -3.239,22.343 -13.123,27.825l-9.054,5.067c-13.871,7.725 -17.857,25.831 -8.472,38.622l6.146,8.389c6.645,9.136 6.811,21.512 0.249,30.814l-5.98,8.473c-9.137,12.957 -4.9,30.98 9.137,38.539l9.137,4.9c9.967,5.316 15.448,16.445 13.538,27.658l-1.744,10.217c-2.658,15.615 9.054,30.066 24.918,30.732l10.382,0.414c11.296,0.498 21.098,8.141 24.254,19.021l2.906,9.967c4.402,15.283 21.181,23.174 35.799,16.861l9.552,-4.07c10.383,-4.484 22.509,-1.828 30.067,6.645l6.894,7.725c10.632,11.795 29.154,11.711 39.536,-0.332l6.812,-7.809c7.475,-8.555 19.519,-11.379 29.983,-7.059l9.636,3.986c14.701,6.062 31.313,-2.16 35.549,-17.443l2.742,-10.046c2.99,-10.965 12.625,-18.771 23.921,-19.354l10.383,-0.58c15.864,-0.914 27.326,-15.533 24.419,-31.148l-1.91,-10.216c-2.077,-11.13 3.239,-22.343 13.123,-27.825l9.054,-5.066c13.869,-7.641 17.856,-25.749 8.471,-38.623zm-288.298,-56.812c0,-22.592 18.273,-40.865 40.865,-40.865s40.865,18.273 40.865,40.865c0,22.592 -18.273,40.865 -40.865,40.865s-40.865,-18.356 -40.865,-40.865zm48.756,105.401c-3.488,4.236 -9.801,4.818 -14.037,1.33l0,0c-4.236,-3.489 -4.817,-9.801 -1.329,-14.037l107.229,-129.157c3.488,-4.236 9.801,-4.817 14.037,-1.329c4.235,3.488 4.817,9.801 1.328,14.037l-107.228,129.156zm99.837,4.236c-22.593,0 -40.865,-18.273 -40.865,-40.865s18.272,-40.865 40.865,-40.865c22.592,0 40.865,18.273 40.865,40.865s-18.274,40.865 -40.865,40.865z" fill="#B1DEF9"/>
   </g>
  </g>
 </g>
</svg>