<svg id="Capa_1" enable-background="new 0 0 512 512" height="512" viewBox="0 0 512 512" width="512" xmlns="http://www.w3.org/2000/svg"><g><path d="m256 0c-140.959 0-256 115.049-256 256 0 140.959 115.049 256 256 256 140.96 0 256-115.049 256-256 0-140.96-115.049-256-256-256zm0 482c-124.617 0-226-101.383-226-226s101.383-226 226-226 226 101.383 226 226-101.383 226-226 226z"/><path d="m365.29 125.497-88.739 90.49c-6.166-3.179-13.149-4.987-20.551-4.987-6.939 0-13.514 1.581-19.389 4.398l-60.004-60.004-21.213 21.213 60.004 60.004c-2.817 5.875-4.398 12.45-4.398 19.389 0 7.715 1.954 14.982 5.389 21.335l-88.756 90.506 21.419 21.005 89.572-91.338c5.35 2.247 11.22 3.492 17.376 3.492 24.813 0 45-20.187 45-45 0-6.466-1.381-12.612-3.847-18.174l89.557-91.323zm-109.29 145.503c-8.271 0-15-6.729-15-15s6.729-15 15-15 15 6.729 15 15-6.729 15-15 15z"/><path d="m241 60h30v61h-30z"/><path d="m241 391h30v61h-30z"/><path d="m60 241h61v30h-61z"/><path d="m391 241h61v30h-61z"/></g></svg>