<svg id="Layer_35" enable-background="new 0 0 64 64" height="512" viewBox="0 0 64 64" width="512" xmlns="http://www.w3.org/2000/svg"><path d="m32 2c16.57 0 30 13.43 30 30s-13.43 30-30 30-30-13.43-30-30 13.43-30 30-30z" fill="#ccd1d9"/><circle cx="32" cy="32" fill="#69d6f4" r="26"/><g fill="#ff826e"><path d="m55.04 19.96-2.45 2.45c-.38.38-.59.89-.59 1.42v5.17c0 1.1-.9 2-2 2s-2-.9-2-2v-5.17c0-.53-.21-1.04-.59-1.42l-5.82-5.82c-.38-.38-.59-.89-.59-1.42 0-1.2.97-2.17 2.17-2.17.53 0 1.04.21 1.42.59l5.41 5.41 2.71-2.71c.88 1.15 1.66 2.38 2.33 3.67z"/><path d="m31.41 26.41c.38.38.59.89.59 1.42 0 .6-.24 1.14-.64 1.53-.39.4-.93.64-1.53.64-.53 0-1.04-.21-1.42-.59l-5.41-5.41-5.41 5.41c-.38.38-.89.59-1.42.59-.6 0-1.14-.24-1.53-.64-.4-.39-.64-.93-.64-1.53 0-.53.21-1.04.59-1.42l5.82-5.82c.38-.38.59-.89.59-1.42v-5.17c0-.55.22-1.05.59-1.41.36-.37.86-.59 1.41-.59 1.1 0 2 .9 2 2v5.17c0 .53.21 1.04.59 1.42z"/><path d="m20 36.17c0 .53-.21 1.04-.59 1.42l-5.82 5.82c-.38.38-.59.89-.59 1.42v4.9c-3.66-3.9-6.12-8.94-6.8-14.53l4.8 4.8 5.41-5.41c.38-.38.89-.59 1.42-.59 1.2 0 2.17.97 2.17 2.17z"/><path d="m41 52c-1.1 0-2-.9-2-2v-5.17c0-.53-.21-1.04-.59-1.42l-5.82-5.82c-.38-.38-.59-.89-.59-1.42 0-.6.24-1.14.64-1.53.39-.4.93-.64 1.53-.64.53 0 1.04.21 1.42.59l5.41 5.41 5.41-5.41c.38-.38.89-.59 1.42-.59.6 0 1.14.24 1.53.64.4.39.64.93.64 1.53 0 .53-.21 1.04-.59 1.42l-5.82 5.82c-.38.38-.59.89-.59 1.42v5.17c0 .55-.22 1.05-.59 1.41-.36.37-.86.59-1.41.59z"/></g><path d="m17.4 49.772c4.099 3.372 9.284 5.228 14.6 5.228v-2c-4.854 0-9.588-1.695-13.33-4.772z"/><path d="m33.911 52.914.179 1.992c.696-.062 1.399-.159 2.091-.286l-.361-1.967c-.632.117-1.274.204-1.909.261z"/><path d="m32.913 11.02.086-1.998c-.692-.029-1.396-.027-2.088.004l.093 1.998c.633-.03 1.275-.032 1.909-.004z"/><path d="m37.137 9.576c-.678-.154-1.37-.279-2.056-.372l-.267 1.982c.627.084 1.259.198 1.878.339z"/><path d="m29.102 11.199-.272-1.982c-.687.094-1.378.222-2.056.379l.453 1.948c.618-.143 1.249-.259 1.875-.345z"/><path d="m32 1c-17.093 0-31 13.907-31 31s13.907 31 31 31 31-13.907 31-31-13.907-31-31-31zm0 60c-15.991 0-29-13.009-29-29s13.009-29 29-29 29 13.009 29 29-13.009 29-29 29z"/><path d="m53.293 37.293-1 1-7 7 1.414 1.414 7-7 1-1z"/><path d="m28.707 37.293-1.414 1.414 1 1 7 7 1.414-1.414-7-7z"/><path d="m51 36.171c0-1.748-1.423-3.171-3.171-3.171-.801 0-1.555.312-2.122.879l-4.707 4.707-4.707-4.707c-.566-.567-1.32-.879-2.122-.879-1.748 0-3.171 1.423-3.171 3.171 0 .801.312 1.555.879 2.122l5.828 5.828c.189.189.293.441.293.708v5.171c0 1.654 1.346 3 3 3s3-1.346 3-3v-5.171c0-.267.104-.519.293-.708l5.828-5.828c.567-.566.879-1.32.879-2.122zm-2.293.708-5.828 5.828c-.567.566-.879 1.32-.879 2.122v5.171c0 .551-.449 1-1 1s-1-.449-1-1v-5.171c0-.801-.312-1.555-.879-2.122l-5.828-5.828c-.189-.189-.293-.441-.293-.708 0-.646.525-1.171 1.171-1.171.267 0 .519.104.708.293l6.121 6.121 6.121-6.121c.189-.189.441-.293.708-.293.646 0 1.171.525 1.171 1.171 0 .267-.104.519-.293.708z"/><path d="m24.707 38.707-1.414-1.414-1 1-7 7 1.414 1.414 7-7z"/><path d="m37.293 18.707 7 7 1.414-1.414-7-7-1-1-1.414 1.414z"/><path d="m32 5c-14.888 0-27 12.112-27 27s12.112 27 27 27 27-12.112 27-27-12.112-27-27-27zm16.121 16.707-5.828-5.828c-.189-.189-.293-.441-.293-.708 0-.646.525-1.171 1.171-1.171.267 0 .519.104.708.293l6.121 6.121 2.582-2.582c.435.631.841 1.283 1.219 1.953l-1.922 1.922c-.567.566-.879 1.32-.879 2.122v5.171c0 .551-.449 1-1 1s-1-.449-1-1v-5.171c0-.802-.312-1.556-.879-2.122zm-36.121 23.122v2.154c-1.944-2.589-3.398-5.566-4.223-8.792l3.223 3.223 6.121-6.121c.189-.189.441-.293.708-.293.646 0 1.171.525 1.171 1.171 0 .267-.104.519-.293.708l-5.828 5.828c-.567.566-.879 1.32-.879 2.122zm20 12.171c-7.065 0-13.449-2.95-18-7.677v-4.494c0-.267.104-.519.293-.708l5.828-5.828c.567-.566.879-1.32.879-2.122 0-1.748-1.423-3.171-3.171-3.171-.801 0-1.555.312-2.122.879l-4.707 4.707-3.847-3.847c-.098-.9-.153-1.813-.153-2.739 0-13.785 11.215-25 25-25 7.804 0 14.782 3.596 19.37 9.216l-1.37 1.37-4.707-4.707c-.566-.567-1.32-.879-2.122-.879-1.748 0-3.171 1.423-3.171 3.171 0 .801.312 1.555.879 2.122l5.828 5.828c.189.189.293.441.293.708v5.171c0 1.654 1.346 3 3 3s3-1.346 3-3v-5.171c0-.267.104-.519.293-.708l1.46-1.46c1.439 3.154 2.247 6.653 2.247 10.339 0 13.785-11.215 25-25 25z"/><path d="m27.707 30.121c.566.567 1.32.879 2.122.879 1.748 0 3.171-1.423 3.171-3.171 0-.801-.312-1.555-.879-2.122l-5.828-5.828c-.189-.189-.293-.441-.293-.708v-5.171c0-1.654-1.346-3-3-3s-3 1.346-3 3v5.171c0 .267-.104.519-.293.708l-5.828 5.828c-.567.566-.879 1.32-.879 2.122 0 1.748 1.423 3.171 3.171 3.171.801 0 1.555-.312 2.122-.879l4.707-4.707zm-10.828-1.414c-.189.189-.441.293-.708.293-.646 0-1.171-.525-1.171-1.171 0-.267.104-.519.293-.708l5.828-5.828c.567-.566.879-1.32.879-2.122v-5.171c0-.551.449-1 1-1s1 .449 1 1v5.171c0 .801.312 1.555.879 2.122l5.828 5.828c.189.189.293.441.293.708 0 .646-.525 1.171-1.171 1.171-.267 0-.519-.104-.708-.293l-6.121-6.121z"/><path d="m17.293 17.293-7 7-1 1 1.414 1.414 1-1 7-7z"/><path d="m28.707 17.293-1.414 1.414 7 7 1 1 1.414-1.414-1-1z"/></svg>