<?xml version="1.0" encoding="utf-8"?>
<!-- Generator: Adobe Illustrator 16.0.0, SVG Export Plug-In . SVG Version: 6.00 Build 0)  -->
<!DOCTYPE svg PUBLIC "-//W3C//DTD SVG 1.1//EN" "http://www.w3.org/Graphics/SVG/1.1/DTD/svg11.dtd">
<svg version="1.1" id="Capa_1" xmlns="http://www.w3.org/2000/svg" xmlns:xlink="http://www.w3.org/1999/xlink" x="0px" y="0px"
	 width="4vw" height="5vh" viewBox="0 0 617.951 405.351" enable-background="new 0 0 617.951 405.351"
	 xml:space="preserve">
<g>
	<g>
		<path fill="#B1DEF9" d="M379.953,190.64c-0.028,0-0.055,0-0.083,0h-33.946V156.61c0.046-6.863-5.48-12.465-12.344-12.511
			c-0.028,0-0.057,0-0.084,0h-49.042c-6.863,0-12.428,5.564-12.428,12.427v34.029h-33.945c-6.863-0.046-12.465,5.48-12.511,12.343
			c0,0.056,0,0.111,0,0.167v48.959c0,6.863,5.563,12.428,12.427,12.428h34.029V298.4c-0.046,6.863,5.481,12.465,12.345,12.51
			c0.027,0,0.056,0,0.083,0h48.959c6.863,0,12.428-5.563,12.428-12.427l0,0v-34.029h34.029c6.863,0.046,12.465-5.481,12.511-12.345
			c0-0.027,0-0.056,0-0.083v-48.959C392.381,196.204,386.817,190.64,379.953,190.64z M375.699,247.773h-38.116
			c-4.605,0-8.34,3.734-8.34,8.34v38.116h-40.535v-38.116c0-4.605-3.734-8.34-8.341-8.34h-38.116v-40.452h38.116
			c4.606,0,8.341-3.734,8.341-8.341v-38.2h40.451v38.117c0,4.606,3.734,8.341,8.341,8.341h38.199V247.773z"/>
	</g>
</g>
<g>
	<g>
		<path fill="#B1DEF9" d="M454.1,81.712L454.1,81.712h-68.726V52.354c0.433-13.397-10.078-24.609-23.475-25.042
			c-0.683-0.022-1.366-0.016-2.048,0.02H258.097c-13.386-0.698-24.804,9.588-25.502,22.974c-0.035,0.682-0.043,1.365-0.02,2.047
			v29.192h-68.727c-26.522,0-57.549,15.096-57.549,57.55v181.406c0,42.453,31.026,57.551,57.549,57.551H454.1
			c26.523,0,57.55-15.098,57.55-57.551v-181.24C511.65,96.809,480.707,81.712,454.1,81.712z M249.257,52.354
			c0-2.419,0-8.924,8.925-8.924h101.671c8.925,0,8.925,6.422,8.925,8.924v29.192H249.257V52.354z M494.969,320.501
			c0,36.865-28.524,40.869-40.869,40.869H163.849c-12.26,0-40.868-4.004-40.868-40.869v-181.24
			c0-36.865,28.524-40.868,40.868-40.868H454.1c12.261,0,40.869,4.003,40.869,40.868V320.501L494.969,320.501z"/>
	</g>
</g>
</svg>
