<svg width="2.5vw" height="3vw" viewBox="0 0 350 380" xmlns="http://www.w3.org/2000/svg">

 <g>
  <title>background</title>
  <rect fill="none" id="canvas_background" height="364.351" width="346" y="-1" x="-1"/>
 </g>
 <g>
  <title>Layer 1</title>
  <path id="svg_1" d="m18.15093,306.832c4.902,3.533 59.927,29.176 126.688,29.176c6.609,0 13.371,-0.309 20.199,-0.898l-4.051,17.547c-0.465,2.016 0.141,4.129 1.602,5.594c1.465,1.461 3.578,2.07 5.594,1.602l55.152,-12.727c0.051,-0.012 0.094,-0.027 0.141,-0.039c0.121,-0.031 0.238,-0.062 0.355,-0.102c0.074,-0.023 0.148,-0.051 0.227,-0.078c0.105,-0.039 0.211,-0.082 0.316,-0.129c0.082,-0.035 0.164,-0.074 0.246,-0.113s0.18,-0.09 0.27,-0.141s0.18,-0.102 0.266,-0.156s0.148,-0.094 0.223,-0.148c0.098,-0.066 0.188,-0.133 0.277,-0.203c0.062,-0.051 0.125,-0.102 0.188,-0.152c0.094,-0.078 0.184,-0.16 0.273,-0.246c0.035,-0.031 0.074,-0.062 0.109,-0.098l101.828,-101.82l4.242,-4.242c13.992,-14.07 13.961,-36.812 -0.07,-50.844s-36.773,-14.062 -50.84,-0.07l-4.242,4.242l-14.285,14.281c-11.387,-21.938 -27.344,-40.238 -46.5,-53.188c-11.891,-8.043 -25.055,-14.02 -38.941,-17.672c29.707,-15.07 45.195,-48.551 37.449,-80.949s-36.703,-55.251 -70.016,-55.259c-33.309,-0.004 -62.273,22.84 -70.031,55.23c-7.758,32.395 7.715,65.883 37.414,80.965c-24.867,6.527 -47.363,20.555 -65.254,41.078c-25.887,29.691 -62.254,73.006 -40.141,116.734c2.275,4.499 8.242,10.613 11.312,12.825zm156.689,39.172l8.133,-35.25l27.117,27.113l-35.25,8.137zm115.031,-148.972c4.492,-4.527 10.605,-7.082 16.988,-7.094s12.504,2.52 17.016,7.031s7.043,10.633 7.031,17.016s-2.566,12.496 -7.098,16.988l-33.937,-33.941zm-8.488,8.484l33.941,33.941l-93.336,93.336l-33.941,-33.938l93.336,-93.339zm-196.543,-133.508c0,-24.27 14.617,-46.145 37.039,-55.434c22.422,-9.285 48.227,-4.152 65.387,13.008s22.293,42.965 13.008,65.387c-9.289,22.422 -31.164,37.039 -55.434,37.039c-33.121,-0.039 -59.961,-26.879 -60,-60l0,0zm-28.817,113.149c23.133,-26.535 54.676,-41.148 88.816,-41.148c46.559,0 87.137,26.863 109.082,72l-78.602,78.602c-0.035,0.031 -0.062,0.074 -0.098,0.105c-0.082,0.09 -0.164,0.176 -0.242,0.27c-0.047,0.055 -0.094,0.113 -0.141,0.176c-0.074,0.094 -0.148,0.191 -0.215,0.289c-0.043,0.062 -0.082,0.125 -0.125,0.191c-0.062,0.102 -0.125,0.199 -0.18,0.305c-0.043,0.07 -0.078,0.145 -0.113,0.219c-0.051,0.098 -0.102,0.199 -0.145,0.301c-0.039,0.086 -0.07,0.172 -0.102,0.262c-0.035,0.086 -0.07,0.184 -0.102,0.281c-0.031,0.094 -0.062,0.207 -0.09,0.309c-0.016,0.062 -0.039,0.121 -0.051,0.184l-5.832,25.273c-7.656,0.809 -15.348,1.219 -23.047,1.234c-55.641,0 -117.998,-20.428 -125.969,-33.633c-21.313,-35.32 13.859,-78.494 37.156,-105.22l0,0zm0,0" stroke-miterlimit="10" stroke="#002F5B" fill="#002F5B"/>
 </g>
</svg>