<?xml version="1.0" encoding="utf-8"?>
<!-- Generator: Adobe Illustrator 16.0.0, SVG Export Plug-In . SVG Version: 6.00 Build 0)  -->
<!DOCTYPE svg PUBLIC "-//W3C//DTD SVG 1.1//EN" "http://www.w3.org/Graphics/SVG/1.1/DTD/svg11.dtd">
<svg version="1.1" id="Capa_1" xmlns="http://www.w3.org/2000/svg" xmlns:xlink="http://www.w3.org/1999/xlink" x="0px" y="0px"
	 width="4vw" height="4vh" viewBox="0 0 617.951 405.351" enable-background="new 0 0 617.951 405.351"
	 xml:space="preserve">
<path fill="#002F5B" stroke="#002F5B" stroke-miterlimit="10" d="M68.4,329.504c4.902,3.533,59.927,29.176,126.688,29.176
	c6.609,0,13.371-0.309,20.199-0.898l-4.051,17.547c-0.465,2.016,0.141,4.129,1.602,5.594c1.465,1.461,3.578,2.07,5.594,1.602
	l55.152-12.727c0.051-0.012,0.094-0.027,0.141-0.039c0.121-0.031,0.238-0.062,0.355-0.102c0.074-0.023,0.148-0.051,0.227-0.078
	c0.105-0.039,0.211-0.082,0.316-0.129c0.082-0.035,0.164-0.074,0.246-0.113s0.18-0.09,0.27-0.141s0.18-0.102,0.266-0.156
	s0.148-0.094,0.223-0.148c0.098-0.066,0.188-0.133,0.277-0.203c0.062-0.051,0.125-0.102,0.188-0.152
	c0.094-0.078,0.184-0.16,0.273-0.246c0.035-0.031,0.074-0.062,0.109-0.098l101.828-101.82l4.242-4.242
	c13.992-14.07,13.961-36.812-0.07-50.844s-36.773-14.062-50.84-0.07l-4.242,4.242l-14.285,14.281
	c-11.387-21.938-27.344-40.238-46.5-53.188c-11.891-8.043-25.055-14.02-38.941-17.672c29.707-15.07,45.195-48.551,37.449-80.949
	S228.413,22.68,195.1,22.672c-33.309-0.004-62.273,22.84-70.031,55.23c-7.758,32.395,7.715,65.883,37.414,80.965
	c-24.867,6.527-47.363,20.555-65.254,41.078c-25.887,29.691-62.254,73.006-40.141,116.734
	C59.363,321.178,65.33,327.292,68.4,329.504z M225.089,368.676l8.133-35.25l27.117,27.113L225.089,368.676z M340.12,219.704
	c4.492-4.527,10.605-7.082,16.988-7.094s12.504,2.52,17.016,7.031s7.043,10.633,7.031,17.016s-2.566,12.496-7.098,16.988
	L340.12,219.704z M331.632,228.188l33.941,33.941l-93.336,93.336l-33.941-33.938L331.632,228.188z M135.089,94.68
	c0-24.27,14.617-46.145,37.039-55.434c22.422-9.285,48.227-4.152,65.387,13.008s22.293,42.965,13.008,65.387
	c-9.289,22.422-31.164,37.039-55.434,37.039C161.968,154.641,135.128,127.801,135.089,94.68L135.089,94.68z M106.272,207.829
	c23.133-26.535,54.676-41.148,88.816-41.148c46.559,0,87.137,26.863,109.082,72l-78.602,78.602
	c-0.035,0.031-0.062,0.074-0.098,0.105c-0.082,0.09-0.164,0.176-0.242,0.27c-0.047,0.055-0.094,0.113-0.141,0.176
	c-0.074,0.094-0.148,0.191-0.215,0.289c-0.043,0.062-0.082,0.125-0.125,0.191c-0.062,0.102-0.125,0.199-0.18,0.305
	c-0.043,0.07-0.078,0.145-0.113,0.219c-0.051,0.098-0.102,0.199-0.145,0.301c-0.039,0.086-0.07,0.172-0.102,0.262
	c-0.035,0.086-0.07,0.184-0.102,0.281c-0.031,0.094-0.062,0.207-0.09,0.309c-0.016,0.062-0.039,0.121-0.051,0.184l-5.832,25.273
	c-7.656,0.809-15.348,1.219-23.047,1.234c-55.641,0-117.998-20.428-125.969-33.633C47.803,277.729,82.975,234.555,106.272,207.829
	L106.272,207.829z M106.272,207.829"/>
</svg>
